<svg xmlns="http://www.w3.org/2000/svg" viewBox="0 0 75 32">
<path fill="#fff" d="M7.556 6.777h61.468v24.889h-61.468z"/>
<path fill="#0a0a0a" d="M8.315 8.45l0.301-0.002 0.327 0.001 0.333-0.001 0.7 0.001q0.537 0.001 1.075-0.001l0.679 0.001 0.327-0.001 0.301 0.002h0.267c0.211 0.024 0.211 0.024 0.399 0.213 0.017 0.239 0.023 0.467 0.021 0.705v0.22q-0.001 0.361-0.003 0.722l-0.001 0.5-0.005 1.318-0.004 1.344q-0.003 1.32-0.009 2.639l0.211-0.097 0.554-0.255c0.823-0.362 1.545-0.445 2.44-0.432l0.318-0.001c0.921 0.006 1.747 0.147 2.605 0.478l0.197 0.075c2.193 0.865 3.688 2.638 4.612 4.757 0.727 1.955 0.551 4.268-0.267 6.163-0.349 0.758-0.769 1.423-1.336 2.039l-0.203 0.222c-1.273 1.334-3.215 2.343-5.089 2.427q-0.362 0.005-0.725 0.005l-0.278 0.001c-0.372 0.001-0.813 0.002-1.254 0.002-0.099 0-0.198-0-0.298-0h0.015q-0.66 0.001-1.319 0.001-0.847 0-1.693 0.003l-1.301 0.001q-0.313 0-0.625 0.001h-0.871l-0.263 0.001-0.239-0.001h-0.208c-0.169-0.023-0.169-0.023-0.357-0.212-0.016-0.235-0.024-0.509-0.024-0.785 0-0.033 0-0.067 0-0.1l-0 0.005-0.001-0.28v-0.935l-0.001-0.668v-3.525q-0.001-1.793 0.001-3.587 0.001-1.54 0-3.080-0.001-1.787-0.001-3.573v-4.327q0-0.445 0.001-0.89l-0.001-0.265c0.004-0.627 0.047-0.828 0.691-0.829zM60.379 15.332q0.292 0.001 0.584-0.001c2.185-0.003 4.143 0.855 5.704 2.383 1.589 1.667 2.336 3.759 2.286 6.042-0.085 2.149-0.896 3.906-2.38 5.46l-0.155 0.175c-1.323 1.451-3.493 2.197-5.405 2.295-2.331 0.045-4.373-0.743-6.093-2.318-1.5-1.446-2.476-3.405-2.516-5.507-0.016-2.411 0.771-4.502 2.479-6.241l0.211-0.218c0.901-0.872 2.073-1.51 3.278-1.856l0.316-0.102c0.555-0.136 1.125-0.115 1.692-0.111zM26.031 15.533l0.302-0.001 0.329 0.001h1.038q0.54 0.001 1.080 0l1.579 0.001c0.2 0.012 0.2 0.012 0.295 0.107q0.013 0.405 0.012 0.809v0.257l0.001 0.556q0 0.592 0.004 1.183 0.006 1.102 0.007 2.204 0 0.766 0.005 1.532 0.002 0.291 0 0.583c-0.033 1.564-0.033 1.564 0.727 2.88 0.58 0.551 1.118 0.795 1.913 0.785l0.215-0.002c0.552-0.016 0.987-0.107 1.453-0.417l0.306-0.2c0.904-0.945 0.798-2.033 0.793-3.262l0.004-0.597q0.005-0.783 0.004-1.566 0.001-1.107 0.007-2.215 0.003-0.589 0.003-1.178l0.001-0.535v-0.248c0.001-0.559 0.001-0.559 0.107-0.664q0.238-0.013 0.476-0.012l0.308-0.001 0.335 0.001h1.057q0.55 0.001 1.1 0l1.61 0.001c0.204 0.012 0.204 0.012 0.298 0.107q0.014 0.3 0.013 0.6l0.001 0.192q0.001 0.32 0.001 0.642l0.001 0.459c0.002 0.594 0.003 1.297 0.003 2 0 0.010 0 0.020 0 0.030v-0.002q0.002 1.218 0.003 2.436 0 1.409 0.005 2.817 0.003 1.087 0.003 2.174 0 0.65 0.003 1.3 0.002 0.611 0 1.223 0 0.225 0.002 0.449 0.001 0.306 0 0.612v0.347c-0.035 0.277-0.035 0.277-0.165 0.455-0.211 0.145-0.36 0.14-0.615 0.14l-0.284 0.002-0.307-0.003h-0.313q-0.33 0-0.659-0.003-0.505-0.003-1.011-0.001l-0.639-0.002h-0.307l-0.283-0.003-0.25-0.001c-0.2-0.025-0.2-0.025-0.388-0.213-0.039-0.225-0.039-0.225-0.059-0.483l-0.021-0.26-0.013-0.2-0.147 0.107c-1.516 1.067-3.261 1.368-5.083 1.082-1.811-0.401-3.365-1.54-4.387-3.075-0.251-0.427-0.481-0.858-0.66-1.32l-0.096-0.243c-0.383-1.127-0.331-2.253-0.321-3.429l0.001-0.679q0.001-0.707 0.005-1.413 0.005-0.907 0.007-1.815c0.002-1.143 0.006-2.196 0.011-3.25l-0.001 0.252 0.001-0.281 0.003-0.476c0.027-0.355 0.277-0.273 0.575-0.273zM51.329 15.445l0.819 0.005q0.011 1.020 0.016 2.039l0.005 0.694q0.005 0.498 0.007 0.996l0.005 0.315v0.291l0.001 0.257c-0.040 0.26-0.109 0.342-0.317 0.499-0.19 0.042-0.19 0.042-0.407 0.052l-0.241 0.015-0.254 0.015c-1.010 0.081-1.741 0.297-2.448 1.058-0.483 0.627-0.624 1.237-0.627 2.016l-0.001 0.247-0.004 0.532-0.006 0.84q-0.010 1.195-0.017 2.389-0.005 0.73-0.011 1.46l-0.004 0.558q-0.002 0.389-0.006 0.778v0.235c-0.007 0.531-0.007 0.531-0.217 0.741-0.203 0.025-0.203 0.025-0.459 0.025l-0.289 0.003h-0.313l-0.32 0.001h-0.673q-0.515 0-1.030 0.005h-0.652l-0.313 0.003-0.289-0.002h-0.255c-0.271-0.044-0.336-0.096-0.498-0.318-0.035-0.277-0.035-0.277-0.035-0.623l-0.001-0.193q-0.001-0.321 0.002-0.641l-0.001-0.46q0-0.624 0.003-1.249 0.002-0.652 0.001-1.305 0-1.095 0.003-2.191 0.005-1.407 0.005-2.815c0-1.725 0.003-3.435 0.007-5.144l-0.001 0.277 0.002-0.611 0.001-0.347c0.012-0.253 0.012-0.253 0.107-0.347q0.233-0.013 0.467-0.013h4.329c0.2 0.013 0.2 0.013 0.295 0.107q0.033 0.333 0.053 0.666l0.023 0.369q0.010 0.14 0.017 0.285l0.14-0.142c0.975-0.935 2.031-1.387 3.378-1.372z"/>
<path fill="#e76e50" d="M30.823 7.297c0.92 0.599 1.516 1.44 1.811 2.497 0.132 0.963-0.079 1.837-0.56 2.675l-0.195 0.247-0.206 0.283c-0.509 0.595-1.292 1.057-2.073 1.159-0.213 0.011-0.424 0.012-0.637 0.008l-0.227-0.003c-1.022-0.027-1.784-0.372-2.532-1.077-0.871-0.923-1.066-1.843-1.044-3.078 0.039-0.877 0.46-1.573 1.063-2.195 1.365-1.178 3-1.38 4.6-0.517zM40.081 7.532c0.673 0.509 1.23 1.323 1.39 2.158 0.134 1.13-0.084 2.198-0.767 3.128-0.532 0.633-1.372 1.252-2.221 1.329-1.78 0.050-1.78 0.050-2.457-0.393l-0.212-0.115c-0.925-0.538-1.439-1.395-1.709-2.412-0.191-0.982-0.053-1.875 0.483-2.723 1.403-1.943 3.502-2.16 5.491-0.973z"/>
<path fill="#fff" d="M17.527 20.695c0.801 0.492 1.339 1.109 1.625 2.015 0.138 0.954-0.009 1.815-0.551 2.614-0.587 0.722-1.234 1.091-2.16 1.198-0.983 0.033-1.691-0.139-2.457-0.76-0.681-0.643-0.967-1.425-1.001-2.345 0.007-0.874 0.328-1.56 0.907-2.209 0.98-0.869 2.447-1.089 3.637-0.513zM62.119 20.694c0.853 0.527 1.311 1.167 1.625 2.11 0.093 1.077-0.065 1.926-0.76 2.769-0.679 0.691-1.354 0.949-2.31 0.967-0.67-0.009-1.183-0.135-1.738-0.531l-0.187-0.131c-0.587-0.457-0.932-1.044-1.133-1.755-0.101-0.915 0.021-1.721 0.531-2.495 0.958-1.196 2.57-1.609 3.972-0.935z"/>
<path fill="#0a0a0a" d="M61.247 7.805l0.288 0.003 0.289 0.003 0.223 0.003c0.003 0.932 0.005 2.125 0.007 3.318l0 0.077 0.003 1.435 0.001 0.873c-0.011 0.237-0.011 0.237-0.105 0.331-0.287 0.035-0.563 0.040-0.849 0-0.195-0.188-0.195-0.188-0.283-0.377l-0.242 0.139c-0.536 0.238-1.068 0.204-1.644 0.144-0.592-0.265-0.989-0.791-1.308-1.343-0.199-0.663-0.201-1.253 0.083-1.891 0.307-0.549 0.73-0.835 1.267-1.137 0.73-0.178 1.199-0.033 1.845 0.318l0.007-0.163 0.034-0.727 0.011-0.257c0.007-0.121 0.007-0.121 0.012-0.244l0.011-0.227c0.030-0.273 0.072-0.267 0.35-0.278zM65.609 9.42c0.657 0.354 1.013 0.849 1.341 1.505q0.013 0.215 0.012 0.43l0.001 0.23c-0.013 0.189-0.013 0.189-0.107 0.283q-0.345 0.011-0.69 0.009h-0.209l-2.213-0.009 0.171 0.318 0.096 0.179c0.115 0.191 0.115 0.191 0.393 0.351 0.602 0.099 0.916-0.035 1.413-0.377 0.313 0.007 0.489 0.043 0.749 0.218 0.1 0.159 0.1 0.159 0.077 0.339-0.13 0.358-0.424 0.553-0.731 0.763-0.572 0.233-1.162 0.305-1.753 0.106-0.621-0.283-1.062-0.645-1.37-1.26-0.204-0.64-0.218-1.433 0.035-2.060 0.635-0.977 1.65-1.449 2.784-1.025z"/>
<path fill="#fff" d="M60.256 10.36c0.297 0.158 0.497 0.377 0.695 0.648 0.129 0.44 0.111 0.81-0.1 1.214-0.223 0.313-0.335 0.453-0.689 0.589-0.461 0.051-0.66 0.049-1.073-0.165-0.305-0.262-0.417-0.437-0.467-0.837-0.010-0.717-0.010-0.717 0.197-1.079 0.443-0.381 0.863-0.47 1.437-0.371z"/>
<path fill="#0a0a0a" d="M56.768 12.433c0.235 0.147 0.235 0.147 0.377 0.377 0 0.356-0.020 0.569-0.247 0.849-0.326 0.137-0.548 0.087-0.885 0-0.232-0.349-0.225-0.531-0.188-0.943 0.209-0.382 0.547-0.331 0.943-0.283z"/>
<path fill="#fff" d="M65.347 10.36c0.219 0.172 0.319 0.325 0.471 0.565v0.189h-2.073c0.221-0.555 0.221-0.555 0.471-0.754 0.394-0.131 0.733-0.116 1.131 0z"/>
<path fill="#fff" d="M64.121 10.455h0.283l-0.094 0.377 1.508 0.095v0.189h-2.073c0.188-0.472 0.188-0.472 0.377-0.66z"/>
<path fill="#e76e50" d="M30.182 7.060c0.369 0.109 0.648 0.222 0.943 0.471l-0.094 0.283-0.849-0.471zM31.691 8.38l0.188 0.094-0.094 0.189zM31.973 8.568l0.189 0.189-0.283 0.095zM26.882 7.437c-0.053 0.342-0.181 0.495-0.43 0.731l-0.183 0.175-0.141 0.131-0.189-0.377q0.182-0.165 0.365-0.33l0.205-0.185c0.184-0.145 0.184-0.145 0.372-0.145z"/>
<path fill="#0a0a0a" d="M55.165 17.337l0.283 0.094-0.943 0.943-0.095-0.283zM22.263 28.555l0.189 0.189-0.849 0.849-0.188-0.189z"/>
<path fill="#e76e50" d="M26.317 12.811c0.308 0.17 0.461 0.267 0.66 0.565l-0.094 0.283c-0.442-0.331-0.442-0.331-0.566-0.471z"/>
<path fill="#0a0a0a" d="M63.65 9.605l0.095 0.283q-0.183 0.195-0.377 0.377h-0.189c0.037-0.272 0.075-0.36 0.289-0.542zM25.563 15.545l0.377 0.189-0.377 0.471q-0.053-0.281-0.095-0.565zM48.095 16.677l0.283 0.094q-0.183 0.195-0.377 0.377h-0.189c0.177-0.365 0.177-0.365 0.283-0.471z"/>
<path fill="#fff" d="M13.024 15.733l0.565 0.095c-0.353 0.283-0.353 0.283-0.565 0.283z"/>
<path fill="#e76e50" d="M27.26 13.471l0.471 0.283-0.094 0.189-0.377-0.189zM35.461 13.093l0.377 0.189-0.095 0.188-0.377-0.188zM25.563 12.151l0.377 0.188v0.377c-0.377-0.46-0.377-0.46-0.377-0.565z"/>
<path fill="#0a0a0a" d="M47.717 22.521l0.283 0.095-0.094 0.283h-0.283zM67.233 18.562l0.471 0.471h-0.283l-0.188-0.189z"/>
<path fill="#e76e50" d="M26.977 13.377l0.283 0.095 0.095 0.283-0.377-0.094z"/>
<path fill="#0a0a0a" d="M7.839 8.475l0.377 0.189-0.377 0.377z"/>
<path fill="#e76e50" d="M32.256 9.417l0.283 0.094v0.283h-0.283z"/>
<path fill="#0a0a0a" d="M47.906 22.145l0.189 0.189-0.095 0.188h-0.283zM68.553 21.956h0.283v0.377l-0.283-0.094z"/>
<path fill="#e76e50" d="M26.599 13.283l0.377 0.094-0.095 0.283-0.283-0.188z"/>
<path fill="#fff" d="M58.842 10.737h0.189c-0.035 0.182-0.035 0.182-0.095 0.377l-0.188 0.095zM65.158 10.36c0.365 0.165 0.365 0.165 0.471 0.377l-0.471-0.189z"/>
<path fill="#0a0a0a" d="M23.771 20.447c0.188 0.189 0.188 0.189 0.188 0.472h-0.188l-0.095-0.283zM58.465 9.7l0.189 0.189-0.471 0.094zM56.013 12.528l0.283 0.189-0.283 0.189-0.094-0.283zM59.407 26.293l0.377 0.188-0.283 0.095zM48.66 21.202l0.094 0.283h-0.283zM25.563 15.545h0.188l-0.094 0.283h-0.189z"/>
<path fill="#e76e50" d="M39.327 7.154l0.283 0.189h-0.377z"/>
</svg>
