<svg aria-hidden="true" style="position: absolute; width: 0; height: 0; overflow: hidden;" version="1.1" xmlns="http://www.w3.org/2000/svg" xmlns:xlink="http://www.w3.org/1999/xlink">
<defs>
<symbol id="icon-creditcard" viewBox="0 0 32 32">
<path d="M30 4h-28c-1.104 0-2 0.896-2 2v20c0 1.104 0.896 2 2 2h28c1.104 0 2-0.896 2-2v-20c0-1.104-0.896-2-2-2zM3 6h26c0.553 0 1 0.447 1 1v3h-28v-3c0-0.553 0.447-1 1-1zM29 26h-26c-0.553 0-1-0.447-1-1v-9h28v9c0 0.553-0.447 1-1 1z"></path>
</symbol>
<symbol id="icon-google" viewBox="0 0 32 32">
<path d="M16.319 13.713v5.487h9.075c-0.369 2.356-2.744 6.9-9.075 6.9-5.463 0-9.919-4.525-9.919-10.1s4.456-10.1 9.919-10.1c3.106 0 5.188 1.325 6.375 2.469l4.344-4.181c-2.788-2.612-6.4-4.188-10.719-4.188-8.844 0-16 7.156-16 16s7.156 16 16 16c9.231 0 15.363-6.494 15.363-15.631 0-1.050-0.113-1.85-0.25-2.65l-15.113-0.006z"></path>
</symbol>
<symbol id="icon-instagram" viewBox="0 0 32 32">
<path d="M16 2.881c4.275 0 4.781 0.019 6.462 0.094 1.563 0.069 2.406 0.331 2.969 0.55 0.744 0.288 1.281 0.638 1.837 1.194 0.563 0.563 0.906 1.094 1.2 1.838 0.219 0.563 0.481 1.412 0.55 2.969 0.075 1.688 0.094 2.194 0.094 6.463s-0.019 4.781-0.094 6.463c-0.069 1.563-0.331 2.406-0.55 2.969-0.288 0.744-0.637 1.281-1.194 1.837-0.563 0.563-1.094 0.906-1.837 1.2-0.563 0.219-1.413 0.481-2.969 0.55-1.688 0.075-2.194 0.094-6.463 0.094s-4.781-0.019-6.463-0.094c-1.563-0.069-2.406-0.331-2.969-0.55-0.744-0.288-1.281-0.637-1.838-1.194-0.563-0.563-0.906-1.094-1.2-1.837-0.219-0.563-0.481-1.413-0.55-2.969-0.075-1.688-0.094-2.194-0.094-6.463s0.019-4.781 0.094-6.463c0.069-1.563 0.331-2.406 0.55-2.969 0.288-0.744 0.638-1.281 1.194-1.838 0.563-0.563 1.094-0.906 1.838-1.2 0.563-0.219 1.412-0.481 2.969-0.55 1.681-0.075 2.188-0.094 6.463-0.094zM16 0c-4.344 0-4.887 0.019-6.594 0.094-1.7 0.075-2.869 0.35-3.881 0.744-1.056 0.412-1.95 0.956-2.837 1.85-0.894 0.888-1.438 1.781-1.85 2.831-0.394 1.019-0.669 2.181-0.744 3.881-0.075 1.713-0.094 2.256-0.094 6.6s0.019 4.887 0.094 6.594c0.075 1.7 0.35 2.869 0.744 3.881 0.413 1.056 0.956 1.95 1.85 2.837 0.887 0.887 1.781 1.438 2.831 1.844 1.019 0.394 2.181 0.669 3.881 0.744 1.706 0.075 2.25 0.094 6.594 0.094s4.888-0.019 6.594-0.094c1.7-0.075 2.869-0.35 3.881-0.744 1.050-0.406 1.944-0.956 2.831-1.844s1.438-1.781 1.844-2.831c0.394-1.019 0.669-2.181 0.744-3.881 0.075-1.706 0.094-2.25 0.094-6.594s-0.019-4.887-0.094-6.594c-0.075-1.7-0.35-2.869-0.744-3.881-0.394-1.063-0.938-1.956-1.831-2.844-0.887-0.887-1.781-1.438-2.831-1.844-1.019-0.394-2.181-0.669-3.881-0.744-1.712-0.081-2.256-0.1-6.6-0.1v0z"></path>
<path d="M16 7.781c-4.537 0-8.219 3.681-8.219 8.219s3.681 8.219 8.219 8.219 8.219-3.681 8.219-8.219c0-4.537-3.681-8.219-8.219-8.219zM16 21.331c-2.944 0-5.331-2.387-5.331-5.331s2.387-5.331 5.331-5.331c2.944 0 5.331 2.387 5.331 5.331s-2.387 5.331-5.331 5.331z"></path>
<path d="M26.462 7.456c0 1.060-0.859 1.919-1.919 1.919s-1.919-0.859-1.919-1.919c0-1.060 0.859-1.919 1.919-1.919s1.919 0.859 1.919 1.919z"></path>
</symbol>
<symbol id="icon-apple" viewBox="0 0 32 32">
<path d="M24.734 17.003c-0.040-4.053 3.305-5.996 3.454-6.093-1.88-2.751-4.808-3.127-5.851-3.171-2.492-0.252-4.862 1.467-6.127 1.467-1.261 0-3.213-1.43-5.28-1.392-2.716 0.040-5.221 1.579-6.619 4.012-2.822 4.897-0.723 12.151 2.028 16.123 1.344 1.944 2.947 4.127 5.051 4.049 2.026-0.081 2.793-1.311 5.242-1.311s3.138 1.311 5.283 1.271c2.18-0.041 3.562-1.981 4.897-3.931 1.543-2.255 2.179-4.439 2.216-4.551-0.048-0.022-4.252-1.632-4.294-6.473zM20.705 5.11c1.117-1.355 1.871-3.235 1.665-5.11-1.609 0.066-3.559 1.072-4.713 2.423-1.036 1.199-1.942 3.113-1.699 4.951 1.796 0.14 3.629-0.913 4.747-2.264z"></path>
</symbol>
<symbol id="icon-linkedin" viewBox="0 0 32 32">
<path d="M29 0h-26c-1.65 0-3 1.35-3 3v26c0 1.65 1.35 3 3 3h26c1.65 0 3-1.35 3-3v-26c0-1.65-1.35-3-3-3zM12 26h-4v-14h4v14zM10 10c-1.106 0-2-0.894-2-2s0.894-2 2-2c1.106 0 2 0.894 2 2s-0.894 2-2 2zM26 26h-4v-8c0-1.106-0.894-2-2-2s-2 0.894-2 2v8h-4v-14h4v2.481c0.825-1.131 2.087-2.481 3.5-2.481 2.488 0 4.5 2.238 4.5 5v9z"></path>
</symbol>
<symbol id="icon-chevron-up" viewBox="0 0 20 20">
<path d="M2.582 13.891c-0.272 0.268-0.709 0.268-0.979 0s-0.271-0.701 0-0.969l7.908-7.83c0.27-0.268 0.707-0.268 0.979 0l7.908 7.83c0.27 0.268 0.27 0.701 0 0.969s-0.709 0.268-0.978 0l-7.42-7.141-7.418 7.141z"></path>
</symbol>
<symbol id="icon-chevron-down" viewBox="0 0 20 20">
<path d="M17.418 6.109c0.272-0.268 0.709-0.268 0.979 0s0.271 0.701 0 0.969l-7.908 7.83c-0.27 0.268-0.707 0.268-0.979 0l-7.908-7.83c-0.27-0.268-0.27-0.701 0-0.969s0.709-0.268 0.979 0l7.419 7.141 7.418-7.141z"></path>
</symbol>
<symbol id="icon-x" viewBox="0 0 24 24">
<path d="M5.293 6.707l5.293 5.293-5.293 5.293c-0.391 0.391-0.391 1.024 0 1.414s1.024 0.391 1.414 0l5.293-5.293 5.293 5.293c0.391 0.391 1.024 0.391 1.414 0s0.391-1.024 0-1.414l-5.293-5.293 5.293-5.293c0.391-0.391 0.391-1.024 0-1.414s-1.024-0.391-1.414 0l-5.293 5.293-5.293-5.293c-0.391-0.391-1.024-0.391-1.414 0s-0.391 1.024 0 1.414z"></path>
</symbol>
<symbol id="icon-book" viewBox="0 0 32 32">
<path fill="#4d4d4d" style="fill: var(--color1, #4d4d4d)" d="M7.405 29.532c-0.613 0-1.145-0.225-1.595-0.676s-0.676-0.982-0.676-1.595v-22.523c0-0.616 0.225-1.149 0.676-1.601s0.982-0.678 1.595-0.678h17.19c0.616 0 1.149 0.226 1.601 0.678s0.678 0.985 0.678 1.601v22.523c0 0.613-0.226 1.145-0.678 1.595s-0.985 0.676-1.601 0.676h-17.19zM7.405 27.261h17.19v-22.523h-1.912v7.914c0 0.204-0.095 0.363-0.285 0.476s-0.385 0.118-0.586 0.013l-1.825-1.055c-0.177-0.1-0.364-0.149-0.56-0.149s-0.379 0.050-0.55 0.149l-1.833 1.055c-0.199 0.105-0.387 0.101-0.564-0.013s-0.265-0.272-0.265-0.476v-7.914h-8.811v22.523zM16.216 12.667v-0.016c0 0.204 0.088 0.363 0.265 0.476s0.365 0.118 0.564 0.013l1.833-1.055c0.176-0.1 0.36-0.149 0.554-0.149s0.39 0.050 0.589 0.149l1.791 1.055c0.201 0.105 0.396 0.101 0.586-0.013s0.285-0.272 0.285-0.476v0.016c0 0.236-0.095 0.409-0.286 0.517s-0.385 0.102-0.584-0.020l-1.825-1.022c-0.177-0.122-0.364-0.182-0.56-0.182s-0.379 0.061-0.55 0.182l-1.833 1.022c-0.199 0.122-0.387 0.128-0.564 0.020s-0.265-0.281-0.265-0.517z"></path>
</symbol>
<symbol id="icon-book_a" viewBox="0 0 32 32">
<path d="M8 29.533c-1.17 0-2.163-0.408-2.977-1.223s-1.222-1.804-1.222-2.969v-18.651c0-1.175 0.411-2.174 1.232-2.997s1.819-1.234 2.992-1.234h11.689c0.632 0 1.17 0.222 1.614 0.665s0.665 0.981 0.665 1.614v16.308c0 0.63-0.222 1.166-0.665 1.608s-0.981 0.663-1.614 0.663h-11.713c-0.562 0-1.033 0.193-1.414 0.579s-0.57 0.861-0.57 1.425c0 0.564 0.19 1.038 0.571 1.421s0.852 0.575 1.414 0.575h17.991v-21.080c0-0.312 0.107-0.575 0.322-0.789s0.478-0.322 0.789-0.322c0.311 0 0.573 0.107 0.786 0.322s0.319 0.478 0.319 0.789v21.024c0 0.63-0.222 1.166-0.665 1.608s-0.981 0.663-1.614 0.663h-17.928zM8 21.134h11.777v-16.459h-11.749c-0.569 0-1.047 0.194-1.433 0.583s-0.579 0.866-0.579 1.433v15.002c0.285-0.178 0.591-0.316 0.919-0.413s0.682-0.145 1.065-0.145zM9.646 18c0.198 0 0.366-0.048 0.505-0.144s0.233-0.228 0.284-0.396l0.595-1.699h3.735l0.564 1.706c0.046 0.166 0.137 0.296 0.274 0.391s0.296 0.142 0.476 0.142c0.309 0 0.55-0.119 0.723-0.358s0.202-0.493 0.085-0.763l-2.89-7.657c-0.050-0.171-0.15-0.307-0.3-0.406s-0.318-0.149-0.504-0.149h-0.644c-0.191 0-0.359 0.050-0.505 0.149s-0.243 0.235-0.292 0.406l-2.861 7.698c-0.116 0.265-0.094 0.511 0.068 0.739s0.391 0.341 0.688 0.341zM11.544 14.267l1.318-3.747h0.084l1.327 3.747h-2.73z"></path>
</symbol>
<symbol id="icon-bubble" viewBox="0 0 32 32">
<path d="M16 28.2c-0.72 0-1.455-0.046-2.203-0.138s-1.458-0.277-2.131-0.556c-0.287-0.106-0.497-0.305-0.629-0.598s-0.146-0.583-0.040-0.87c0.1-0.282 0.292-0.492 0.574-0.629s0.567-0.154 0.854-0.048c0.501 0.209 1.071 0.356 1.708 0.441s1.26 0.127 1.867 0.127c2.801 0 5.156-0.954 7.065-2.863s2.863-4.264 2.863-7.065-0.954-5.156-2.863-7.065c-1.909-1.909-4.264-2.863-7.065-2.863s-5.156 0.954-7.065 2.863c-1.909 1.909-2.863 4.264-2.863 7.065 0 0.634 0.042 1.229 0.125 1.787s0.231 1.109 0.443 1.655c0.084 0.304 0.052 0.598-0.094 0.883s-0.374 0.469-0.683 0.553c-0.304 0.084-0.597 0.047-0.879-0.111s-0.465-0.39-0.548-0.7c-0.19-0.584-0.344-1.223-0.46-1.917s-0.175-1.411-0.175-2.15c0-1.698 0.317-3.287 0.95-4.767s1.502-2.773 2.607-3.88c1.104-1.107 2.396-1.978 3.876-2.611s3.068-0.95 4.767-0.95c1.698 0 3.287 0.317 4.767 0.95s2.773 1.504 3.88 2.611c1.107 1.107 1.978 2.4 2.611 3.88s0.95 3.068 0.95 4.767-0.317 3.287-0.95 4.767c-0.633 1.479-1.504 2.771-2.611 3.876s-2.4 1.974-3.88 2.607c-1.479 0.633-3.068 0.95-4.767 0.95zM4.701 27.299c-0.21-0.211-0.316-0.46-0.316-0.749s0.105-0.538 0.316-0.749l11.595-11.587h-4.596c-0.302 0-0.552-0.098-0.75-0.294s-0.298-0.447-0.298-0.754c0-0.307 0.098-0.558 0.294-0.754s0.447-0.294 0.754-0.294h7.046c0.326 0 0.597 0.108 0.812 0.323s0.323 0.486 0.323 0.812v7.046c0 0.301-0.098 0.551-0.294 0.75s-0.447 0.298-0.754 0.298-0.558-0.098-0.754-0.294c-0.196-0.196-0.294-0.447-0.294-0.754v-4.596l-11.62 11.628c-0.211 0.21-0.455 0.31-0.732 0.299s-0.521-0.122-0.732-0.332z"></path>
</symbol>
<symbol id="icon-camera" viewBox="0 0 32 32">
<path d="M11.992 3.833h8.023c2.639 0 4.879 0.922 6.721 2.767s2.763 4.089 2.763 6.732c0 2.41-0.785 4.499-2.353 6.267s-3.51 2.816-5.823 3.142l-0.037 0.005 0.009 0.036 0.841 3.297h3.654c0.298 0 0.546 0.102 0.747 0.305s0.302 0.453 0.302 0.75c-0 0.296-0.102 0.541-0.303 0.737s-0.449 0.294-0.743 0.294h-19.589c-0.296 0-0.542-0.1-0.741-0.299s-0.297-0.447-0.297-0.743c0-0.297 0.099-0.544 0.297-0.743s0.445-0.299 0.741-0.299h3.664l0.007-0.025 0.836-3.309-0.036-0.005c-2.313-0.326-4.253-1.373-5.822-3.142s-2.353-3.857-2.353-6.267c0-2.643 0.92-4.887 2.762-6.732s4.085-2.767 6.729-2.767zM12.798 22.857l-0.793 3.182-0.010 0.040h8.010l-0.009-0.040-0.792-3.182-0.007-0.025h-6.393l-0.007 0.025zM11.98 5.926c-2.046 0-3.789 0.721-5.228 2.161s-2.159 3.187-2.159 5.238c0 2.051 0.721 3.801 2.161 5.246s3.184 2.167 5.228 2.167h8.036c2.046 0 3.789-0.721 5.228-2.161s2.159-3.187 2.159-5.238c-0-2.051-0.721-3.8-2.161-5.245s-3.184-2.168-5.228-2.168h-8.036zM16 8.033c1.458 0 2.705 0.518 3.743 1.556s1.556 2.286 1.556 3.743-0.518 2.705-1.556 3.743c-1.038 1.038-2.286 1.556-3.743 1.556s-2.705-0.518-3.743-1.556c-1.038-1.038-1.556-2.286-1.556-3.743s0.518-2.705 1.556-3.743c1.038-1.038 2.286-1.556 3.744-1.556zM16 10.117c-0.902 0-1.662 0.311-2.28 0.932s-0.927 1.383-0.927 2.283c0 0.902 0.309 1.663 0.928 2.281s1.379 0.926 2.279 0.926c0.899 0 1.661-0.309 2.283-0.928s0.932-1.379 0.932-2.279-0.311-1.661-0.932-2.283c-0.621-0.622-1.383-0.932-2.283-0.932zM8.556 9.52c0.289 0 0.539 0.099 0.75 0.298s0.315 0.44 0.315 0.729c0 0.289-0.104 0.539-0.314 0.75s-0.453 0.315-0.73 0.315c-0.295 0-0.543-0.104-0.745-0.314s-0.303-0.453-0.303-0.73c0-0.295 0.1-0.544 0.298-0.746s0.44-0.302 0.729-0.302z"></path>
</symbol>
<symbol id="icon-check" viewBox="0 0 32 32">
<path stroke-linejoin="miter" stroke-linecap="butt" stroke-miterlimit="4" stroke-width="1.3333" d="M25.418 9.063c0.132 0 0.234 0.041 0.339 0.146s0.146 0.209 0.146 0.344c0 0.135-0.040 0.239-0.145 0.345l-12.824 12.815c-0.11 0.109-0.211 0.147-0.335 0.147s-0.224-0.038-0.331-0.145l-6.047-6.047c-0.103-0.104-0.14-0.204-0.137-0.333 0.004-0.141 0.050-0.251 0.159-0.359 0.105-0.105 0.209-0.146 0.344-0.146 0.102 0 0.186 0.023 0.267 0.079l0.081 0.068 5.664 5.691 12.462-12.454c0.113-0.11 0.222-0.151 0.357-0.151z"></path>
</symbol>
<symbol id="icon-cog" viewBox="0 0 32 32">
<path fill="#4d4d4d" style="fill: var(--color1, #4d4d4d)" d="M16 21.333c2.941 0 5.333-2.392 5.333-5.333s-2.392-5.333-5.333-5.333c-2.941 0-5.333 2.392-5.333 5.333s2.392 5.333 5.333 5.333zM16 13.333c1.445 0 2.667 1.221 2.667 2.667s-1.221 2.667-2.667 2.667c-1.445 0-2.667-1.221-2.667-2.667s1.221-2.667 2.667-2.667z"></path>
<path fill="#4d4d4d" style="fill: var(--color1, #4d4d4d)" d="M3.793 21.515l1.333 2.307c0.708 1.223 2.412 1.681 3.64 0.973l0.705-0.408c0.771 0.607 1.622 1.106 2.528 1.483v0.797c0 1.471 1.196 2.667 2.667 2.667h2.667c1.471 0 2.667-1.196 2.667-2.667v-0.797c0.906-0.377 1.756-0.875 2.528-1.481l0.705 0.408c1.231 0.707 2.931 0.251 3.641-0.975l1.332-2.305c0.353-0.612 0.449-1.34 0.266-2.023s-0.629-1.265-1.241-1.62l-0.673-0.389c0.143-0.983 0.143-1.982 0-2.965l0.673-0.389c0.612-0.354 1.058-0.937 1.241-1.62s0.087-1.41-0.266-2.023l-1.332-2.305c-0.708-1.227-2.411-1.687-3.641-0.976l-0.705 0.408c-0.771-0.607-1.622-1.106-2.528-1.483v-0.797c0-1.471-1.196-2.667-2.667-2.667h-2.667c-1.471 0-2.667 1.196-2.667 2.667v0.797c-0.906 0.377-1.756 0.875-2.528 1.481l-0.705-0.408c-1.232-0.708-2.933-0.249-3.641 0.976l-1.332 2.305c-0.353 0.612-0.449 1.34-0.266 2.023s0.629 1.266 1.241 1.62l0.673 0.389c-0.144 0.983-0.144 1.981 0 2.964l-0.673 0.389c-0.612 0.355-1.058 0.937-1.241 1.621s-0.087 1.411 0.266 2.023zM8.228 17.837c-0.151-0.601-0.227-1.218-0.228-1.837 0-0.616 0.077-1.235 0.227-1.837 0.070-0.281 0.047-0.577-0.066-0.844s-0.31-0.489-0.561-0.634l-1.497-0.867 1.331-2.305 1.527 0.883c0.249 0.144 0.538 0.204 0.824 0.169s0.552-0.16 0.76-0.359c0.902-0.858 1.99-1.496 3.179-1.865 0.273-0.083 0.512-0.252 0.682-0.482s0.262-0.507 0.262-0.793v-1.733h2.667v1.733c0 0.286 0.092 0.564 0.262 0.793s0.409 0.398 0.682 0.482c1.189 0.37 2.276 1.008 3.179 1.865 0.208 0.198 0.475 0.324 0.761 0.358s0.574-0.025 0.823-0.169l1.525-0.881 1.333 2.305-1.499 0.865c-0.251 0.145-0.447 0.367-0.561 0.634s-0.136 0.563-0.066 0.844c0.149 0.603 0.227 1.221 0.227 1.837 0 0.615-0.077 1.233-0.228 1.837-0.070 0.281-0.047 0.577 0.067 0.844s0.31 0.489 0.561 0.634l1.497 0.865-1.331 2.305-1.527-0.881c-0.249-0.144-0.538-0.204-0.824-0.17s-0.553 0.16-0.76 0.359c-0.902 0.858-1.99 1.496-3.179 1.865-0.273 0.083-0.512 0.252-0.682 0.482s-0.262 0.507-0.262 0.793l0.003 1.733h-2.669v-1.733c-0-0.286-0.092-0.563-0.262-0.793s-0.409-0.398-0.682-0.482c-1.189-0.37-2.276-1.008-3.179-1.865-0.208-0.199-0.475-0.326-0.76-0.36s-0.575 0.026-0.824 0.172l-1.525 0.883-1.333-2.305 1.499-0.868c0.251-0.145 0.448-0.367 0.561-0.634s0.137-0.563 0.067-0.844z"></path>
</symbol>
<symbol id="icon-contract" viewBox="0 0 32 32">
<path d="M7.572 29.533c-1.048 0-1.938-0.367-2.671-1.1s-1.1-1.623-1.1-2.671v-2.516c0-0.614 0.219-1.142 0.657-1.584s0.968-0.663 1.59-0.663h1.761v-16.26c0-0.632 0.222-1.17 0.665-1.614s0.981-0.665 1.614-0.665h15.849c0.624 0 1.159 0.222 1.604 0.665s0.667 0.981 0.667 1.614v21.023c0 1.048-0.367 1.938-1.1 2.671s-1.624 1.1-2.671 1.1h-16.865zM24.433 27.262c0.424 0 0.781-0.144 1.070-0.431s0.433-0.644 0.433-1.069v-21.023h-15.849v16.26h10.57c0.632 0 1.17 0.222 1.614 0.667s0.665 0.98 0.665 1.604v2.492c0 0.425 0.143 0.781 0.43 1.069s0.642 0.431 1.067 0.431zM13.159 10.651c-0.304 0-0.559-0.103-0.764-0.309s-0.307-0.462-0.307-0.767c0-0.305 0.102-0.561 0.307-0.767s0.46-0.309 0.764-0.309h9.697c0.303 0 0.559 0.105 0.767 0.315s0.313 0.467 0.313 0.772c0 0.305-0.104 0.559-0.313 0.761s-0.464 0.303-0.767 0.303h-9.697zM13.159 14.81c-0.304 0-0.559-0.105-0.764-0.314s-0.307-0.467-0.307-0.773c0-0.305 0.102-0.56 0.307-0.765s0.46-0.307 0.764-0.307h9.697c0.303 0 0.559 0.105 0.767 0.315s0.313 0.467 0.313 0.772c0 0.305-0.104 0.56-0.313 0.765s-0.464 0.307-0.767 0.307h-9.697zM7.538 27.262h13.119v-3.992h-14.586v2.488c0 0.426 0.144 0.783 0.433 1.072s0.633 0.432 1.033 0.432zM7.538 27.262v0z"></path>
</symbol>
<symbol id="icon-search" viewBox="0 0 24 24">
<path d="M9.41405 15.8765C7.58339 15.8765 6.03372 15.2415 4.76505 13.9715C3.49655 12.7015 2.8623 11.1693 2.8623 9.3748C2.8623 7.5803 3.4973 6.04805 4.7673 4.77805C6.03714 3.50805 7.57355 2.87305 9.37655 2.87305C11.1794 2.87305 12.7116 3.50805 13.9731 4.77805C15.2347 6.04805 15.8656 7.58155 15.8656 9.37855C15.8656 10.1007 15.7519 10.7921 15.5246 11.4528C15.2972 12.1135 14.9562 12.7335 14.5016 13.3128L20.5156 19.277C20.6856 19.4435 20.7706 19.6499 20.7706 19.896C20.7706 20.1424 20.6856 20.3505 20.5156 20.5205C20.3436 20.6944 20.1339 20.7813 19.8866 20.7813C19.6394 20.7813 19.4346 20.6944 19.2721 20.5205L13.2831 14.5373C12.7871 14.9583 12.2071 15.2867 11.5431 15.5225C10.8791 15.7585 10.1694 15.8765 9.41405 15.8765ZM9.39105 14.173C10.7199 14.173 11.8473 13.7044 12.7733 12.767C13.6993 11.8297 14.1623 10.699 14.1623 9.3748C14.1623 8.05063 13.699 6.91988 12.7723 5.98255C11.8458 5.04521 10.7187 4.57655 9.39105 4.57655C8.04955 4.57655 6.90989 5.04521 5.97205 5.98255C5.03439 6.91988 4.56555 8.05063 4.56555 9.3748C4.56555 10.699 5.03414 11.8297 5.9713 12.767C6.90847 13.7044 8.04839 14.173 9.39105 14.173Z" fill="white" fill-opacity="0.6"/>
</symbol>
<symbol id="icon-facebook" viewBox="0 0 32 32">
<path d="M29.333 16.404c0-7.409-5.969-13.415-13.333-13.415s-13.333 6.006-13.333 13.415c0 6.696 4.876 12.245 11.25 13.252v-9.374h-3.385v-3.878h3.385v-2.955c0-3.362 1.991-5.219 5.036-5.219 1.459 0 2.985 0.262 2.985 0.262v3.301h-1.681c-1.656 0-2.173 1.034-2.173 2.095v2.516h3.698l-0.591 3.878h-3.107v9.374c6.374-1.006 11.25-6.556 11.25-13.252z"></path>
</symbol>
<symbol id="icon-globe" viewBox="0 0 32 32">
<path d="M16.010 29.533c-1.871 0-3.627-0.354-5.268-1.063s-3.076-1.677-4.305-2.907-2.198-2.665-2.907-4.307c-0.708-1.642-1.063-3.399-1.063-5.272s0.354-3.631 1.063-5.273c0.708-1.642 1.677-3.073 2.905-4.291s2.664-2.183 4.306-2.894c1.642-0.711 3.4-1.066 5.274-1.066s3.632 0.355 5.275 1.066c1.643 0.71 3.074 1.675 4.292 2.892s2.183 2.65 2.893 4.296c0.711 1.646 1.066 3.405 1.066 5.278s-0.355 3.628-1.066 5.269c-0.711 1.641-1.675 3.074-2.894 4.298s-2.65 2.193-4.296 2.906c-1.645 0.712-3.404 1.069-5.275 1.069zM16 27.262c3.074 0 5.687-1.054 7.84-3.161s3.278-4.667 3.373-7.678c0-0.057 0.001-0.105 0.004-0.144s0.004-0.082 0.004-0.13c-0.165 0.514-0.474 0.94-0.925 1.279s-0.978 0.507-1.579 0.507h-2.627c-0.753 0-1.398-0.268-1.934-0.805s-0.804-1.182-0.804-1.936v-1.37h-5.477v-2.687c0-0.759 0.268-1.405 0.805-1.94s1.182-0.802 1.936-0.802h1.371v-0.733c0-0.384 0.154-0.852 0.462-1.403s0.659-0.871 1.052-0.961c-0.55-0.17-1.116-0.306-1.698-0.407s-1.182-0.152-1.801-0.152c-3.119 0-5.777 1.091-7.972 3.274s-3.293 4.845-3.293 7.988c0 0.021 0.001 0.041 0.004 0.060s0.004 0.039 0.004 0.060h4.633c1.509 0 2.799 0.535 3.87 1.606s1.607 2.36 1.607 3.866v1.369h-4.104v3.046c0.787 0.399 1.621 0.708 2.502 0.926s1.796 0.328 2.745 0.328z"></path>
</symbol>
<symbol id="icon-help" viewBox="0 0 32 32">
<path d="M16.12 23.766c0.366 0 0.679-0.131 0.939-0.392s0.39-0.576 0.39-0.945c0-0.369-0.13-0.682-0.391-0.939s-0.576-0.386-0.944-0.386-0.681 0.129-0.939 0.386c-0.258 0.257-0.387 0.572-0.387 0.944 0 0.367 0.13 0.68 0.389 0.94s0.573 0.391 0.943 0.391zM16.011 29.532c-1.871 0-3.627-0.354-5.268-1.063s-3.076-1.677-4.305-2.907-2.198-2.665-2.907-4.307c-0.708-1.642-1.063-3.399-1.063-5.272s0.354-3.631 1.063-5.273c0.708-1.642 1.677-3.073 2.905-4.291s2.664-2.183 4.306-2.894c1.642-0.711 3.4-1.066 5.274-1.066s3.632 0.355 5.275 1.066c1.643 0.71 3.074 1.675 4.292 2.892s2.183 2.65 2.893 4.296c0.711 1.646 1.066 3.405 1.066 5.278s-0.355 3.628-1.066 5.269c-0.711 1.641-1.675 3.074-2.894 4.298s-2.65 2.193-4.296 2.906c-1.645 0.713-3.404 1.069-5.275 1.069zM16.018 27.261c3.123 0 5.778-1.097 7.965-3.292s3.28-4.857 3.28-7.987c0-3.123-1.091-5.778-3.274-7.965s-4.846-3.28-7.992-3.28c-3.115 0-5.77 1.091-7.965 3.274s-3.293 4.846-3.293 7.992c0 3.115 1.097 5.77 3.292 7.965s4.857 3.293 7.987 3.293zM16.078 10.127c0.639 0 1.203 0.197 1.69 0.592s0.731 0.896 0.731 1.504c0 0.564-0.167 1.056-0.502 1.476s-0.713 0.81-1.134 1.17c-0.511 0.428-0.957 0.903-1.337 1.426s-0.571 1.109-0.571 1.756c0 0.258 0.099 0.464 0.297 0.617s0.429 0.23 0.692 0.23c0.283 0 0.518-0.094 0.706-0.283s0.316-0.421 0.381-0.698c0.072-0.451 0.246-0.859 0.521-1.223s0.599-0.695 0.972-0.99c0.545-0.444 0.993-0.969 1.343-1.575s0.525-1.256 0.525-1.951c0-1.126-0.414-2.068-1.242-2.826s-1.81-1.137-2.946-1.137c-0.81 0-1.585 0.171-2.325 0.512s-1.352 0.84-1.834 1.495c-0.161 0.233-0.235 0.485-0.221 0.756s0.128 0.49 0.344 0.657c0.27 0.183 0.55 0.24 0.84 0.171s0.532-0.232 0.723-0.487c0.273-0.377 0.615-0.67 1.026-0.879s0.851-0.314 1.32-0.314z"></path>
</symbol>
<symbol id="icon-mail" viewBox="0 0 32 32">
<path stroke-linejoin="miter" stroke-linecap="butt" stroke-miterlimit="4" stroke-width="1.3333" d="M4.072 7.655v17.605h23.857v-17.077l-11.642 7.664c-0.080 0.042-0.15 0.077-0.211 0.1-0.004 0.001-0.027 0.008-0.075 0.008s-0.072-0.007-0.075-0.008c-0.061-0.024-0.131-0.058-0.212-0.1l-10.307-6.788v-0.533l10.595 6.94 12.841-8.387c0.021 0.104 0.033 0.211 0.033 0.323v17.19c0 0.428-0.15 0.793-0.482 1.124s-0.698 0.48-1.13 0.48h-22.523c-0.429 0-0.793-0.15-1.124-0.48l-0.116-0.125c-0.25-0.297-0.365-0.623-0.365-0.999v-17.19c0-0.118 0.012-0.231 0.035-0.34l0.902 0.591zM4.738 5.792h22.523c0.431 0 0.797 0.151 1.129 0.483h0.001c0.146 0.146 0.255 0.3 0.333 0.462h-25.444c0.078-0.163 0.187-0.317 0.333-0.464h0.001c0.331-0.332 0.694-0.482 1.122-0.482z"></path>
</symbol>
<symbol id="icon-mode_heat" viewBox="0 0 32 32">
<path d="M14.8 4.723c0.211-0.004 0.427 0.058 0.645 0.187 0.434 0.256 0.65 0.645 0.65 1.17v2.316c0 0.729 0.252 1.341 0.756 1.835s1.121 0.741 1.85 0.741c0.388 0 0.749-0.081 1.084-0.244s0.63-0.409 0.889-0.734c0.185-0.216 0.399-0.363 0.641-0.442 0.238-0.079 0.464-0.049 0.679 0.090v0.001c1.485 1.024 2.652 2.332 3.499 3.922s1.27 3.291 1.27 5.102c0 3.005-1.043 5.549-3.128 7.634s-4.629 3.128-7.634 3.128c-3.005 0-5.549-1.043-7.634-3.128s-3.127-4.629-3.127-7.634c0-2.565 0.792-5.063 2.379-7.493s3.77-4.511 6.55-6.241h0.001c0.209-0.136 0.419-0.205 0.631-0.209zM15.982 19.576l-2.276 2.252c-0.309 0.304-0.544 0.639-0.704 1.005s-0.24 0.766-0.24 1.198c0 0.884 0.315 1.634 0.943 2.247s1.395 0.92 2.297 0.92c0.901-0 1.667-0.307 2.295-0.922s0.942-1.365 0.942-2.25c0-0.373-0.061-0.724-0.184-1.051l-0.057-0.139-0.133-0.27c-0.146-0.263-0.333-0.509-0.56-0.736h-0.001l-2.306-2.273-0.018 0.018zM13.898 7.8c-1.972 1.435-3.537 3.134-4.693 5.096s-1.736 3.885-1.736 5.771c0 1.319 0.291 2.561 0.873 3.727s1.399 2.141 2.45 2.928l0.067 0.051-0.029-0.079c-0.088-0.243-0.154-0.493-0.198-0.751s-0.066-0.512-0.066-0.761c0.027-0.681 0.173-1.319 0.441-1.911 0.234-0.518 0.555-0.999 0.962-1.441l0.18-0.188 3.853-3.795 3.861 3.795c0.493 0.493 0.873 1.036 1.141 1.629 0.234 0.519 0.375 1.071 0.421 1.657l0.014 0.254c0 0.249-0.022 0.503-0.066 0.761s-0.108 0.509-0.191 0.752l-0.026 0.077 0.066-0.050c1.040-0.787 1.854-1.763 2.441-2.928s0.882-2.408 0.882-3.727c0-1.161-0.247-2.299-0.738-3.412s-1.198-2.137-2.117-3.072l-0.014-0.016-0.018 0.012c-0.465 0.316-0.951 0.565-1.456 0.745s-1.004 0.269-1.498 0.27c-1.333 0-2.445-0.442-3.337-1.324s-1.368-2.010-1.426-3.383v-0.715l-0.040 0.029z"></path>
</symbol>
<symbol id="icon-person" viewBox="0 0 32 32">
<path d="M24.445 14.127h-3.238c-0.302 0-0.552-0.101-0.75-0.303s-0.298-0.452-0.298-0.751c0-0.303 0.099-0.553 0.298-0.748s0.448-0.294 0.75-0.294h3.238v-3.238c0-0.297 0.1-0.546 0.299-0.746s0.45-0.301 0.75-0.301 0.55 0.099 0.748 0.298c0.198 0.199 0.298 0.449 0.298 0.75v3.238h3.238c0.297 0 0.546 0.1 0.747 0.3s0.301 0.45 0.301 0.75c0 0.3-0.1 0.55-0.301 0.748s-0.45 0.298-0.747 0.298h-3.238v3.238c0 0.297-0.101 0.546-0.303 0.747s-0.452 0.301-0.751 0.301c-0.303 0-0.553-0.1-0.748-0.301s-0.294-0.45-0.294-0.747v-3.238zM12.014 15.864c-1.526 0-2.774-0.485-3.743-1.454s-1.454-2.217-1.454-3.744c0-1.526 0.485-2.775 1.454-3.745s2.217-1.456 3.743-1.456 2.776 0.485 3.749 1.456c0.973 0.97 1.46 2.219 1.46 3.745s-0.487 2.774-1.46 3.744c-0.973 0.969-2.223 1.454-3.749 1.454zM1.15 24.699v-1.078c0-0.817 0.206-1.556 0.617-2.217s0.999-1.159 1.762-1.492c1.677-0.739 3.171-1.259 4.48-1.562s2.642-0.454 3.998-0.454c1.366 0 2.701 0.151 4.006 0.454s2.793 0.823 4.465 1.562c0.763 0.349 1.356 0.849 1.778 1.499s0.634 1.387 0.634 2.209v1.078c0 0.624-0.222 1.159-0.666 1.604s-0.981 0.667-1.613 0.667h-17.19c-0.624 0-1.159-0.222-1.604-0.667s-0.667-0.979-0.667-1.604zM3.421 24.699h17.19v-1.046c0-0.352-0.1-0.688-0.301-1.008s-0.468-0.556-0.802-0.71c-1.55-0.717-2.864-1.189-3.942-1.417s-2.263-0.342-3.555-0.342c-1.281 0-2.467 0.114-3.559 0.342s-2.413 0.7-3.962 1.417c-0.336 0.154-0.598 0.391-0.787 0.71s-0.283 0.656-0.283 1.008v1.046zM12.016 13.593c0.851 0 1.552-0.276 2.102-0.829s0.826-1.252 0.826-2.099c0-0.849-0.275-1.549-0.826-2.101s-1.25-0.827-2.098-0.827c-0.848 0-1.549 0.276-2.103 0.828s-0.83 1.251-0.83 2.097c0 0.848 0.276 1.549 0.829 2.102s1.252 0.83 2.099 0.83z"></path>
</symbol>
<symbol id="icon-play_arrow" viewBox="0 0 32 32">
<path d="M11.607 7.18c0.093 0 0.191 0.012 0.294 0.036 0.051 0.012 0.101 0.028 0.151 0.047l0.147 0.069 11.974 7.652c0.17 0.119 0.299 0.253 0.385 0.402s0.13 0.32 0.13 0.514c0 0.194-0.044 0.364-0.13 0.513s-0.215 0.284-0.385 0.404l-11.974 7.652c-0.096 0.053-0.196 0.091-0.299 0.112-0.104 0.022-0.204 0.033-0.297 0.033-0.296 0-0.553-0.098-0.773-0.293-0.218-0.193-0.328-0.461-0.328-0.809v-15.224c0-0.346 0.11-0.615 0.331-0.813 0.222-0.199 0.48-0.297 0.775-0.297zM12.706 21.526l0.051-0.033 8.803-5.592-0.044-0.029-8.81-5.596v11.25z"></path>
</symbol>
<symbol id="icon-reward" viewBox="0 0 32 32">
<path d="M16 14.766c0.822 0 1.517-0.283 2.083-0.85s0.85-1.261 0.85-2.083c0-0.822-0.283-1.517-0.85-2.083s-1.261-0.85-2.083-0.85-1.517 0.283-2.083 0.85c-0.567 0.567-0.85 1.261-0.85 2.083s0.283 1.517 0.85 2.083c0.567 0.567 1.261 0.85 2.083 0.85zM14.864 26v-4.686c-1.205-0.255-2.276-0.777-3.212-1.566s-1.592-1.767-1.969-2.934c-1.74-0.125-3.214-0.794-4.422-2.006s-1.812-2.682-1.812-4.407v-1.467c0-0.632 0.222-1.17 0.665-1.614s0.981-0.665 1.614-0.665h3.467v-0.933c0-0.545 0.196-1.014 0.587-1.409s0.863-0.591 1.413-0.591h9.617c0.545 0 1.014 0.197 1.409 0.591s0.591 0.864 0.591 1.409v0.933h3.467c0.624 0 1.159 0.222 1.604 0.665s0.667 0.981 0.667 1.614v1.467c0 1.725-0.604 3.194-1.812 4.407s-2.682 1.882-4.422 2.006c-0.377 1.167-1.033 2.145-1.969 2.934s-2.006 1.311-3.212 1.566v4.686h3.843c0.32 0 0.59 0.11 0.808 0.329s0.327 0.49 0.327 0.812c0 0.322-0.109 0.591-0.327 0.806s-0.488 0.323-0.808 0.323h-9.958c-0.32 0-0.59-0.11-0.808-0.329s-0.327-0.49-0.327-0.812c0-0.322 0.109-0.591 0.327-0.806s0.488-0.323 0.808-0.323h3.843zM9.196 14.466v-5.533h-3.467v1.467c0 1 0.328 1.872 0.983 2.617s1.483 1.228 2.483 1.45zM16.008 19.166c1.261 0 2.331-0.444 3.209-1.332s1.317-1.966 1.317-3.235v-8.6h-9.067v8.6c0 1.268 0.441 2.347 1.325 3.235s1.955 1.332 3.217 1.332zM22.813 14.466c0.995-0.222 1.821-0.706 2.479-1.45s0.987-1.617 0.987-2.617v-1.467h-3.467v5.533z"></path>
</symbol>
<symbol id="icon-schedule" viewBox="0 0 32 32">
<path fill="#4d4d4d" style="fill: var(--color1, #4d4d4d)" d="M17.188 15.548v-5.529c0-0.314-0.103-0.574-0.308-0.779s-0.465-0.308-0.778-0.308-0.573 0.103-0.78 0.308c-0.206 0.206-0.31 0.466-0.31 0.779v5.964c0 0.149 0.025 0.287 0.075 0.413s0.125 0.251 0.224 0.374l4.704 4.871c0.223 0.238 0.494 0.352 0.815 0.341s0.592-0.125 0.813-0.341c0.221-0.216 0.332-0.481 0.332-0.797s-0.111-0.584-0.332-0.805l-4.455-4.492zM16.001 29.532c-1.855 0-3.605-0.355-5.25-1.065s-3.082-1.679-4.311-2.907c-1.228-1.228-2.198-2.665-2.908-4.31s-1.065-3.395-1.065-5.25 0.356-3.605 1.067-5.251c0.711-1.646 1.68-3.082 2.907-4.309s2.663-2.197 4.308-2.911c1.646-0.714 3.396-1.071 5.251-1.071s3.605 0.357 5.251 1.071c1.646 0.714 3.082 1.684 4.308 2.911s2.197 2.663 2.911 4.308c0.714 1.646 1.071 3.396 1.071 5.251s-0.357 3.605-1.071 5.251-1.684 3.082-2.911 4.308c-1.227 1.227-2.663 2.195-4.308 2.907s-3.395 1.067-5.25 1.067zM15.996 27.261c3.092 0 5.743-1.102 7.952-3.306s3.313-4.854 3.313-7.952c0-3.098-1.104-5.75-3.312-7.956s-4.858-3.309-7.949-3.309c-3.095 0-5.746 1.103-7.952 3.309s-3.309 4.857-3.309 7.953c0 3.101 1.103 5.753 3.309 7.956s4.856 3.306 7.948 3.306z"></path>
</symbol>
<symbol id="icon-skip_next" viewBox="0 0 32 32">
<path fill="#4d4d4d" style="fill: var(--color1, #4d4d4d)" d="M22.77 23.239v-14.478c0-0.321 0.11-0.59 0.329-0.808s0.49-0.327 0.812-0.327c0.322 0 0.591 0.109 0.806 0.327s0.323 0.488 0.323 0.808v14.478c0 0.321-0.11 0.59-0.329 0.808s-0.49 0.327-0.812 0.327c-0.322 0-0.591-0.109-0.807-0.327s-0.323-0.488-0.323-0.808zM6.958 22.219v-12.439c0-0.337 0.113-0.611 0.34-0.821s0.492-0.315 0.796-0.315c0.122 0 0.235 0.019 0.34 0.058s0.207 0.094 0.307 0.166l8.942 6.186c0.177 0.122 0.304 0.263 0.381 0.424s0.116 0.335 0.116 0.521c0 0.186-0.039 0.359-0.116 0.521s-0.204 0.303-0.381 0.424l-8.942 6.186c-0.1 0.072-0.202 0.127-0.307 0.166s-0.218 0.058-0.34 0.058c-0.304 0-0.569-0.105-0.796-0.315s-0.34-0.484-0.34-0.821zM9.229 20.031l5.834-4.031-5.834-4.031v8.062z"></path>
</symbol>
<symbol id="icon-star" viewBox="0 0 32 32">
<path fill="#4d4d4d" style="fill: var(--color1, #4d4d4d)" d="M11.433 22.567l4.567-3.467 4.567 3.467-1.833-5.767 4.2-2.733h-5.033l-1.9-5.767-1.9 5.767h-5.033l4.2 2.733-1.833 5.767zM16.008 21.885l-5.639 4.296c-0.227 0.171-0.456 0.246-0.688 0.224s-0.447-0.097-0.646-0.224c-0.199-0.127-0.341-0.299-0.427-0.518s-0.093-0.463-0.021-0.734l2.152-7.007-5.531-3.979c-0.227-0.154-0.373-0.349-0.439-0.584s-0.061-0.457 0.017-0.667c0.077-0.204 0.203-0.388 0.377-0.551s0.405-0.245 0.692-0.245h6.858l2.193-7.307c0.072-0.276 0.215-0.483 0.427-0.622s0.435-0.207 0.667-0.207 0.454 0.069 0.667 0.207c0.213 0.138 0.358 0.345 0.435 0.622l2.185 7.307h6.866c0.282 0 0.509 0.082 0.684 0.245s0.3 0.347 0.377 0.551c0.077 0.21 0.083 0.432 0.017 0.667s-0.212 0.43-0.439 0.584l-5.531 3.979 2.152 6.999c0.072 0.276 0.065 0.522-0.021 0.738s-0.228 0.387-0.427 0.514c-0.199 0.132-0.413 0.209-0.643 0.232s-0.457-0.055-0.684-0.232l-5.631-4.289z"></path>
</symbol>
<symbol id="icon-arrow_right" viewBox="0 0 32 32">
<path stroke-linejoin="miter" stroke-linecap="butt" stroke-miterlimit="4" stroke-width="2" d="M16.289 1c0.142 0.001 0.266 0.035 0.389 0.121l0.123 0.105 13.896 13.896c0.106 0.108 0.158 0.193 0.182 0.25v0.002c0.030 0.073 0.047 0.153 0.047 0.248s-0.017 0.173-0.047 0.244v0.002c-0.024 0.057-0.075 0.142-0.182 0.25l-13.908 13.896c-0.183 0.181-0.34 0.232-0.506 0.232-0.161-0-0.306-0.049-0.473-0.221l-0.010-0.010-0.104-0.121c-0.084-0.119-0.113-0.235-0.113-0.365s0.030-0.245 0.113-0.363l0.104-0.121 12.723-12.723h-26.82c-0.244-0-0.389-0.070-0.51-0.191h-0.002c-0.122-0.122-0.191-0.268-0.191-0.512s0.070-0.39 0.191-0.512h0.002c0.121-0.121 0.266-0.191 0.51-0.191h26.82l-12.711-12.711c-0.123-0.123-0.186-0.24-0.211-0.369l-0.012-0.135c-0.002-0.18 0.050-0.327 0.211-0.488l0.002-0.002c0.16-0.161 0.307-0.214 0.486-0.213z"></path>
</symbol>
<symbol id="icon-video_file" viewBox="0 0 32 32">
<path fill="#4d4d4d" style="fill: var(--color1, #4d4d4d)" d="M11.734 24.002h5.833c0.311 0 0.583-0.117 0.817-0.35s0.35-0.506 0.35-0.817v-1.833l1.83 1.044c0.19 0.121 0.377 0.127 0.561 0.017s0.276-0.279 0.276-0.506v-3.11c0-0.218-0.090-0.385-0.269-0.5s-0.369-0.111-0.568 0.010l-1.83 1.044v-1.833c0-0.311-0.117-0.583-0.35-0.817s-0.506-0.35-0.817-0.35h-5.833c-0.311 0-0.583 0.117-0.817 0.35s-0.35 0.506-0.35 0.817v5.667c0 0.311 0.117 0.583 0.35 0.817s0.506 0.35 0.817 0.35zM7.406 29.534c-0.613 0-1.145-0.225-1.595-0.676s-0.676-0.982-0.676-1.595v-22.523c0-0.616 0.225-1.149 0.676-1.601s0.982-0.678 1.595-0.678h11.096c0.314 0 0.614 0.064 0.899 0.191s0.529 0.293 0.734 0.497l6.052 6.052c0.204 0.204 0.37 0.449 0.497 0.734s0.191 0.585 0.191 0.899v16.43c0 0.613-0.226 1.145-0.678 1.595s-0.985 0.676-1.601 0.676h-17.19zM18.296 9.805v-5.065h-10.89v22.523h17.19v-16.323h-5.165c-0.32 0-0.59-0.109-0.808-0.327s-0.327-0.488-0.327-0.808z"></path>
</symbol>
<symbol id="icon-X" viewBox="0 0 32 32">
<path d="M22.901 5.656h3.68l-8.040 9.037 9.459 12.297h-7.406l-5.801-7.458-6.637 7.458h-3.682l8.6-9.666-9.074-11.668h7.594l5.243 6.817 6.064-6.817zM21.61 24.823h2.039l-13.163-17.115h-2.188l13.312 17.115z"></path>
</symbol>
<symbol id="icon-youtube" viewBox="0 0 32 32">
<path d="M28.79 9.604c-0.152-0.563-0.449-1.077-0.861-1.49s-0.925-0.711-1.489-0.864c-2.088-0.573-10.441-0.583-10.441-0.583s-8.352-0.009-10.441 0.539c-0.563 0.16-1.075 0.462-1.487 0.878s-0.711 0.929-0.867 1.493c-0.551 2.088-0.556 6.419-0.556 6.419s-0.005 4.352 0.541 6.419c0.307 1.143 1.207 2.045 2.351 2.353 2.109 0.573 10.44 0.583 10.44 0.583s8.353 0.009 10.441-0.537c0.563-0.153 1.077-0.45 1.49-0.862s0.712-0.925 0.866-1.488c0.552-2.087 0.556-6.416 0.556-6.416s0.027-4.353-0.543-6.441zM13.328 20.007l0.007-8 6.943 4.007-6.949 3.993z"></path>
</symbol>
<symbol id="icon-cart" viewBox="0 0 26 28">
<path d="M20 11c0-0.547-0.453-1-1-1-0.266 0-0.516 0.109-0.703 0.297l-2.297 2.281v-4.578c0-0.547-0.453-1-1-1s-1 0.453-1 1v4.578l-2.297-2.281c-0.187-0.187-0.438-0.297-0.703-0.297-0.547 0-1 0.453-1 1 0 0.266 0.109 0.516 0.297 0.703l4 4c0.187 0.187 0.438 0.297 0.703 0.297s0.516-0.109 0.703-0.297l4-4c0.187-0.187 0.297-0.438 0.297-0.703zM10 24c0 1.109-0.891 2-2 2s-2-0.891-2-2 0.891-2 2-2 2 0.891 2 2zM24 24c0 1.109-0.891 2-2 2s-2-0.891-2-2 0.891-2 2-2 2 0.891 2 2zM26 7v8c0 0.5-0.375 0.938-0.891 1l-16.312 1.906c0.063 0.344 0.203 0.734 0.203 1.094s-0.219 0.688-0.375 1h14.375c0.547 0 1 0.453 1 1s-0.453 1-1 1h-16c-0.547 0-1-0.453-1-1 0-0.484 0.734-1.687 0.953-2.141l-2.766-12.859h-3.187c-0.547 0-1-0.453-1-1s0.453-1 1-1h4c1.062 0 1.078 1.25 1.234 2h18.766c0.547 0 1 0.453 1 1z"></path>
</symbol>
<symbol id="icon-add-record" viewBox="0 0 32 32">
<path d="M21 25v-3h1v3h3v1h-3v3h-1v-3h-3v-1h3zM17.257 29v0 0c1.009 1.221 2.535 2 4.243 2 3.038 0 5.5-2.462 5.5-5.5 0-2.137-1.219-3.99-3-4.9v-11.6l-6-7h-10.997c-1.106 0-2.003 0.898-2.003 2.007v22.985c0 1.109 0.891 2.007 1.997 2.007h10.26zM16.6 28h-9.6c-0.545 0-1-0.446-1-0.995v-23.009c0-0.54 0.446-0.995 0.996-0.995h10.004v4.994c0 1.119 0.895 2.006 1.998 2.006h4.002v10.207c-0.477-0.135-0.98-0.207-1.5-0.207-3.038 0-5.5 2.462-5.5 5.5 0 0.9 0.216 1.75 0.6 2.5v0 0zM18 3.5l4.7 5.5h-3.703c-0.546 0-0.997-0.452-0.997-1.009v-4.491zM21.5 30v0c-2.485 0-4.5-2.015-4.5-4.5s2.015-4.5 4.5-4.5c2.485 0 4.5 2.015 4.5 4.5s-2.015 4.5-4.5 4.5z"></path>
</symbol>
<symbol id="icon-edit" viewBox="0 0 24 24">
<path d="M3 17.25V21h3.75L17.81 9.94l-3.75-3.75L3 17.25zM20.71 7.04c.39-.39.39-1.02 0-1.41L18.37 3.29a.9959.9959 0 0 0-1.41 0l-1.83 1.83 3.75 3.75 1.83-1.83z"></path>
</symbol>
<symbol id="icon-trash" viewBox="0 0 24 24">
<path d="M6 7h12l-1 14H7L6 7zm3-3h6l1 2H8l1-2z"></path>
</symbol>
<symbol id="icon-add-photo" viewBox="0 0 24 24">
<path d="M5.016 18.984h12l-4.031-4.969-3 3.984-1.969-3zM15.984 11.016h3v7.969q0 0.797-0.586 1.406t-1.383 0.609h-12q-0.797 0-1.406-0.609t-0.609-1.406v-12q0-0.797 0.609-1.383t1.406-0.586h7.969v3h3v3zM18.984 6.984v3h-1.969v-3h-3v-1.969h3v-3h1.969v3h3v1.969h-3z"></path>
</symbol>
<symbol id="icon-chevrons-double" viewBox="0 0 24 24">
<path d="M16.293 12.7069L17.707 11.2929L12 5.58594L6.29303 11.2929L7.70703 12.7069L12 8.41394L16.293 12.7069Z"/>
<path d="M17.707 16.2929L12 10.5859L6.29303 16.2929L7.70703 17.7069L12 13.4139L16.293 17.7069L17.707 16.2929Z"/>
</symbol>
<symbol id="icon-home" viewBox="0 0 24 24">
<path d="M2.99979 13.0002H3.99979V20.0002C3.99979 21.1032 4.89679 22.0002 5.99979 22.0002H17.9998C19.1028 22.0002 19.9998 21.1032 19.9998 20.0002V13.0002H20.9998C21.1975 13.0002 21.3908 12.9415 21.5552 12.8316C21.7197 12.7217 21.8478 12.5656 21.9235 12.3829C21.9991 12.2002 22.0189 11.9991 21.9804 11.8052C21.9418 11.6112 21.8466 11.4331 21.7068 11.2932L12.7068 2.2932C12.614 2.20026 12.5038 2.12652 12.3825 2.07621C12.2612 2.0259 12.1311 2 11.9998 2C11.8685 2 11.7384 2.0259 11.6171 2.07621C11.4958 2.12652 11.3856 2.20026 11.2928 2.2932L2.29279 11.2932C2.15298 11.4331 2.05777 11.6112 2.0192 11.8052C1.98064 11.9991 2.00044 12.2002 2.07611 12.3829C2.15178 12.5656 2.27992 12.7217 2.44433 12.8316C2.60874 12.9415 2.80204 13.0002 2.99979 13.0002ZM9.99979 20.0002V15.0002H13.9998V20.0002H9.99979ZM11.9998 4.4142L17.9998 10.4142L18.0008 20.0002H15.9998V15.0002C15.9998 13.8972 15.1028 13.0002 13.9998 13.0002H9.99979C8.89679 13.0002 7.99979 13.8972 7.99979 15.0002V20.0002H5.99979V10.4142L11.9998 4.4142Z"/>
</symbol>
<symbol id="icon-pie-chart" viewBox="0 0 24 24">
<!-- <path d="M2.99979 13.0002H3.99979V20.0002C3.99979 21.1032 4.89679 22.0002 5.99979 22.0002H17.9998C19.1028 22.0002 19.9998 21.1032 19.9998 20.0002V13.0002H20.9998C21.1975"/> -->
<path d="M12 2C6.486 2 2 6.486 2 12C2 17.514 6.486 22 12 22C17.514 22 22 17.514 22 12C22 6.486 17.514 2 12 2ZM19.931 11H13V4.069C14.7598 4.29335 16.3953 5.09574 17.6498 6.3502C18.9043 7.60466 19.7066 9.24017 19.931 11ZM4 12C4 7.928 7.061 4.564 11 4.069V12C11.003 12.1526 11.0409 12.3024 11.111 12.438C11.126 12.468 11.133 12.501 11.152 12.531L15.354 19.254C14.3038 19.7442 13.159 19.9988 12 20C7.589 20 4 16.411 4 12ZM17.052 18.196L13.805 13H19.931C19.6746 15.0376 18.6436 16.8982 17.052 18.196Z"/>
</symbol>
<symbol id="icon-cog" viewBox="0 0 24 24">
<path d="M12.001 16C14.207 16 16.001 14.206 16.001 12C16.001 9.794 14.207 8 12.001 8C9.79498 8 8.00098 9.794 8.00098 12C8.00098 14.206 9.79498 16 12.001 16ZM12.001 10C13.085 10 14.001 10.916 14.001 12C14.001 13.084 13.085 14 12.001 14C10.917 14 10.001 13.084 10.001 12C10.001 10.916 10.917 10 12.001 10Z"/>
<path d="M2.84595 16.136L3.84595 17.866C4.37695 18.783 5.65495 19.127 6.57595 18.596L7.10495 18.29C7.68349 18.7451 8.32136 19.1192 9.00095 19.402V20C9.00095 21.103 9.89795 22 11.001 22H13.001C14.104 22 15.001 21.103 15.001 20V19.402C15.6803 19.1192 16.3181 18.7454 16.897 18.291L17.426 18.597C18.349 19.127 19.624 18.785 20.157 17.866L21.156 16.137C21.421 15.6777 21.4928 15.132 21.3558 14.6197C21.2187 14.1075 20.8839 13.6706 20.425 13.405L19.92 13.113C20.0273 12.3756 20.0273 11.6264 19.92 10.889L20.425 10.597C20.8837 10.3312 21.2183 9.89433 21.3554 9.38216C21.4924 8.86998 21.4207 8.32436 21.156 7.865L20.157 6.136C19.626 5.216 18.349 4.871 17.426 5.404L16.897 5.71C16.3184 5.25491 15.6805 4.8808 15.001 4.598V4C15.001 2.897 14.104 2 13.001 2H11.001C9.89795 2 9.00095 2.897 9.00095 4V4.598C8.3216 4.88084 7.68377 5.25459 7.10495 5.709L6.57595 5.403C5.65195 4.872 4.37595 5.216 3.84495 6.135L2.84595 7.864C2.58094 8.3233 2.50907 8.86901 2.64613 9.38126C2.78319 9.89352 3.11798 10.3304 3.57695 10.596L4.08195 10.888C3.97419 11.6251 3.97419 12.3739 4.08195 13.111L3.57695 13.403C3.11812 13.669 2.78348 14.106 2.64645 14.6184C2.50941 15.1307 2.58116 15.6765 2.84595 16.136ZM6.17195 13.378C6.05904 12.9273 6.00161 12.4646 6.00095 12C6.00095 11.538 6.05895 11.074 6.17095 10.622C6.22369 10.4113 6.20635 10.1892 6.12154 9.98928C6.03673 9.78935 5.88908 9.6225 5.70095 9.514L4.57795 8.864L5.57595 7.135L6.72095 7.797C6.90768 7.90505 7.12441 7.94962 7.33862 7.92401C7.55283 7.89841 7.75296 7.80401 7.90895 7.655C8.58547 7.01156 9.40128 6.53281 10.293 6.256C10.4978 6.19347 10.6771 6.06683 10.8046 5.89473C10.932 5.72263 11.0009 5.51416 11.001 5.3V4H13.001V5.3C13.001 5.51416 13.0699 5.72263 13.1973 5.89473C13.3248 6.06683 13.5041 6.19347 13.709 6.256C14.6004 6.53321 15.4162 7.0119 16.093 7.655C16.2491 7.80372 16.4492 7.89792 16.6633 7.92352C16.8775 7.94911 17.0941 7.90473 17.281 7.797L18.425 7.136L19.425 8.865L18.301 9.514C18.1129 9.62262 17.9654 9.78948 17.8806 9.98938C17.7958 10.1893 17.7784 10.4113 17.831 10.622C17.943 11.074 18.001 11.538 18.001 12C18.001 12.461 17.943 12.925 17.83 13.378C17.7775 13.5888 17.795 13.8109 17.88 14.0108C17.965 14.2107 18.1128 14.3775 18.301 14.486L19.424 15.135L18.426 16.864L17.281 16.203C17.0943 16.0948 16.8775 16.0501 16.6633 16.0757C16.449 16.1013 16.2489 16.1958 16.093 16.345C15.4164 16.9884 14.6006 17.4672 13.709 17.744C13.5041 17.8065 13.3248 17.9332 13.1973 18.1053C13.0699 18.2774 13.001 18.4858 13.001 18.7L13.003 20H11.001V18.7C11.0009 18.4858 10.932 18.2774 10.8046 18.1053C10.6771 17.9332 10.4978 17.8065 10.293 17.744C9.40146 17.4668 8.58574 16.9881 7.90895 16.345C7.75326 16.1954 7.55301 16.1007 7.3386 16.0753C7.1242 16.0498 6.90734 16.095 6.72095 16.204L5.57695 16.866L4.57695 15.137L5.70095 14.486C5.88915 14.3775 6.03691 14.2107 6.12188 14.0108C6.20686 13.8109 6.22444 13.5888 6.17195 13.378Z"/>
</symbol>
<symbol id="icon-help" viewBox="0 0 24 24">
<path d="M12 6C10.957 6.00132 9.95716 6.41622 9.21968 7.1537C8.4822 7.89118 8.0673 8.89104 8.06598 9.934H10.066C10.066 8.867 10.934 8 12 8C13.066 8 13.934 8.867 13.934 9.934C13.934 10.532 13.453 10.966 12.718 11.56C12.4779 11.7481 12.2472 11.948 12.027 12.159C11.029 13.156 11 14.215 11 14.333V15H13L12.999 14.367C13 14.351 13.032 13.981 13.44 13.574C13.59 13.424 13.779 13.274 13.975 13.116C14.754 12.485 15.933 11.532 15.933 9.934C15.9322 8.89106 15.5176 7.89104 14.7802 7.15347C14.0428 6.4159 13.0429 6.00106 12 6ZM11 16H13V18H11V16Z"/>
<path d="M12 2C6.486 2 2 6.486 2 12C2 17.514 6.486 22 12 22C17.514 22 22 17.514 22 12C22 6.486 17.514 2 12 2ZM12 20C7.589 20 4 16.411 4 12C4 7.589 7.589 4 12 4C16.411 4 20 7.589 20 12C20 16.411 16.411 20 12 20Z"/>
</symbol>
<symbol id="icon-dots-horizontal" viewBox="0 0 24 24">
<path d="M12 10C10.9 10 10 10.9 10 12C10 13.1 10.9 14 12 14C13.1 14 14 13.1 14 12C14 10.9 13.1 10 12 10ZM18 10C16.9 10 16 10.9 16 12C16 13.1 16.9 14 18 14C19.1 14 20 13.1 20 12C20 10.9 19.1 10 18 10ZM6 10C4.9 10 4 10.9 4 12C4 13.1 4.9 14 6 14C7.1 14 8 13.1 8 12C8 10.9 7.1 10 6 10Z"/>
</symbol>
<symbol id="icon-buro-logo" viewBox="0 0 75 32">
<path fill="#fff" style="fill: var(--color1, #fff)" d="M7.556 6.777h61.468v24.889h-61.468z"></path>
<path fill="#0a0a0a" style="fill: var(--color2, #0a0a0a)" d="M8.315 8.45l0.301-0.002 0.327 0.001 0.333-0.001 0.7 0.001q0.537 0.001 1.075-0.001l0.679 0.001 0.327-0.001 0.301 0.002h0.267c0.211 0.024 0.211 0.024 0.399 0.213 0.017 0.239 0.023 0.467 0.021 0.705v0.22q-0.001 0.361-0.003 0.722l-0.001 0.5-0.005 1.318-0.004 1.344q-0.003 1.32-0.009 2.639l0.211-0.097 0.554-0.255c0.823-0.362 1.545-0.445 2.44-0.432l0.318-0.001c0.921 0.006 1.747 0.147 2.605 0.478l0.197 0.075c2.193 0.865 3.688 2.638 4.612 4.757 0.727 1.955 0.551 4.268-0.267 6.163-0.349 0.758-0.769 1.423-1.336 2.039l-0.203 0.222c-1.273 1.334-3.215 2.343-5.089 2.427q-0.362 0.005-0.725 0.005l-0.278 0.001c-0.372 0.001-0.813 0.002-1.254 0.002-0.099 0-0.198-0-0.298-0h0.015q-0.66 0.001-1.319 0.001-0.847 0-1.693 0.003l-1.301 0.001q-0.313 0-0.625 0.001h-0.871l-0.263 0.001-0.239-0.001h-0.208c-0.169-0.023-0.169-0.023-0.357-0.212-0.016-0.235-0.024-0.509-0.024-0.785 0-0.033 0-0.067 0-0.1l-0 0.005-0.001-0.28v-0.935l-0.001-0.668v-3.525q-0.001-1.793 0.001-3.587 0.001-1.54 0-3.080-0.001-1.787-0.001-3.573v-4.327q0-0.445 0.001-0.89l-0.001-0.265c0.004-0.627 0.047-0.828 0.691-0.829zM60.379 15.332q0.292 0.001 0.584-0.001c2.185-0.003 4.143 0.855 5.704 2.383 1.589 1.667 2.336 3.759 2.286 6.042-0.085 2.149-0.896 3.906-2.38 5.46l-0.155 0.175c-1.323 1.451-3.493 2.197-5.405 2.295-2.331 0.045-4.373-0.743-6.093-2.318-1.5-1.446-2.476-3.405-2.516-5.507-0.016-2.411 0.771-4.502 2.479-6.241l0.211-0.218c0.901-0.872 2.073-1.51 3.278-1.856l0.316-0.102c0.555-0.136 1.125-0.115 1.692-0.111zM26.031 15.533l0.302-0.001 0.329 0.001h1.038q0.54 0.001 1.080 0l1.579 0.001c0.2 0.012 0.2 0.012 0.295 0.107q0.013 0.405 0.012 0.809v0.257l0.001 0.556q0 0.592 0.004 1.183 0.006 1.102 0.007 2.204 0 0.766 0.005 1.532 0.002 0.291 0 0.583c-0.033 1.564-0.033 1.564 0.727 2.88 0.58 0.551 1.118 0.795 1.913 0.785l0.215-0.002c0.552-0.016 0.987-0.107 1.453-0.417l0.306-0.2c0.904-0.945 0.798-2.033 0.793-3.262l0.004-0.597q0.005-0.783 0.004-1.566 0.001-1.107 0.007-2.215 0.003-0.589 0.003-1.178l0.001-0.535v-0.248c0.001-0.559 0.001-0.559 0.107-0.664q0.238-0.013 0.476-0.012l0.308-0.001 0.335 0.001h1.057q0.55 0.001 1.1 0l1.61 0.001c0.204 0.012 0.204 0.012 0.298 0.107q0.014 0.3 0.013 0.6l0.001 0.192q0.001 0.32 0.001 0.642l0.001 0.459c0.002 0.594 0.003 1.297 0.003 2 0 0.010 0 0.020 0 0.030v-0.002q0.002 1.218 0.003 2.436 0 1.409 0.005 2.817 0.003 1.087 0.003 2.174 0 0.65 0.003 1.3 0.002 0.611 0 1.223 0 0.225 0.002 0.449 0.001 0.306 0 0.612v0.347c-0.035 0.277-0.035 0.277-0.165 0.455-0.211 0.145-0.36 0.14-0.615 0.14l-0.284 0.002-0.307-0.003h-0.313q-0.33 0-0.659-0.003-0.505-0.003-1.011-0.001l-0.639-0.002h-0.307l-0.283-0.003-0.25-0.001c-0.2-0.025-0.2-0.025-0.388-0.213-0.039-0.225-0.039-0.225-0.059-0.483l-0.021-0.26-0.013-0.2-0.147 0.107c-1.516 1.067-3.261 1.368-5.083 1.082-1.811-0.401-3.365-1.54-4.387-3.075-0.251-0.427-0.481-0.858-0.66-1.32l-0.096-0.243c-0.383-1.127-0.331-2.253-0.321-3.429l0.001-0.679q0.001-0.707 0.005-1.413 0.005-0.907 0.007-1.815c0.002-1.143 0.006-2.196 0.011-3.25l-0.001 0.252 0.001-0.281 0.003-0.476c0.027-0.355 0.277-0.273 0.575-0.273zM51.329 15.445l0.819 0.005q0.011 1.020 0.016 2.039l0.005 0.694q0.005 0.498 0.007 0.996l0.005 0.315v0.291l0.001 0.257c-0.040 0.26-0.109 0.342-0.317 0.499-0.19 0.042-0.19 0.042-0.407 0.052l-0.241 0.015-0.254 0.015c-1.010 0.081-1.741 0.297-2.448 1.058-0.483 0.627-0.624 1.237-0.627 2.016l-0.001 0.247-0.004 0.532-0.006 0.84q-0.010 1.195-0.017 2.389-0.005 0.73-0.011 1.46l-0.004 0.558q-0.002 0.389-0.006 0.778v0.235c-0.007 0.531-0.007 0.531-0.217 0.741-0.203 0.025-0.203 0.025-0.459 0.025l-0.289 0.003h-0.313l-0.32 0.001h-0.673q-0.515 0-1.030 0.005h-0.652l-0.313 0.003-0.289-0.002h-0.255c-0.271-0.044-0.336-0.096-0.498-0.318-0.035-0.277-0.035-0.277-0.035-0.623l-0.001-0.193q-0.001-0.321 0.002-0.641l-0.001-0.46q0-0.624 0.003-1.249 0.002-0.652 0.001-1.305 0-1.095 0.003-2.191 0.005-1.407 0.005-2.815c0-1.725 0.003-3.435 0.007-5.144l-0.001 0.277 0.002-0.611 0.001-0.347c0.012-0.253 0.012-0.253 0.107-0.347q0.233-0.013 0.467-0.013h4.329c0.2 0.013 0.2 0.013 0.295 0.107q0.033 0.333 0.053 0.666l0.023 0.369q0.010 0.14 0.017 0.285l0.14-0.142c0.975-0.935 2.031-1.387 3.378-1.372z"></path>
<path fill="#e76e50" style="fill: var(--color3, #e76e50)" d="M30.823 7.297c0.92 0.599 1.516 1.44 1.811 2.497 0.132 0.963-0.079 1.837-0.56 2.675l-0.195 0.247-0.206 0.283c-0.509 0.595-1.292 1.057-2.073 1.159-0.213 0.011-0.424 0.012-0.637 0.008l-0.227-0.003c-1.022-0.027-1.784-0.372-2.532-1.077-0.871-0.923-1.066-1.843-1.044-3.078 0.039-0.877 0.46-1.573 1.063-2.195 1.365-1.178 3-1.38 4.6-0.517zM40.081 7.532c0.673 0.509 1.23 1.323 1.39 2.158 0.134 1.13-0.084 2.198-0.767 3.128-0.532 0.633-1.372 1.252-2.221 1.329-1.78 0.050-1.78 0.050-2.457-0.393l-0.212-0.115c-0.925-0.538-1.439-1.395-1.709-2.412-0.191-0.982-0.053-1.875 0.483-2.723 1.403-1.943 3.502-2.16 5.491-0.973z"></path>
<path fill="#fff" style="fill: var(--color1, #fff)" d="M17.527 20.695c0.801 0.492 1.339 1.109 1.625 2.015 0.138 0.954-0.009 1.815-0.551 2.614-0.587 0.722-1.234 1.091-2.16 1.198-0.983 0.033-1.691-0.139-2.457-0.76-0.681-0.643-0.967-1.425-1.001-2.345 0.007-0.874 0.328-1.56 0.907-2.209 0.98-0.869 2.447-1.089 3.637-0.513zM62.119 20.694c0.853 0.527 1.311 1.167 1.625 2.11 0.093 1.077-0.065 1.926-0.76 2.769-0.679 0.691-1.354 0.949-2.31 0.967-0.67-0.009-1.183-0.135-1.738-0.531l-0.187-0.131c-0.587-0.457-0.932-1.044-1.133-1.755-0.101-0.915 0.021-1.721 0.531-2.495 0.958-1.196 2.57-1.609 3.972-0.935z"></path>
<path fill="#0a0a0a" style="fill: var(--color2, #0a0a0a)" d="M61.247 7.805l0.288 0.003 0.289 0.003 0.223 0.003c0.003 0.932 0.005 2.125 0.007 3.318l0 0.077 0.003 1.435 0.001 0.873c-0.011 0.237-0.011 0.237-0.105 0.331-0.287 0.035-0.563 0.040-0.849 0-0.195-0.188-0.195-0.188-0.283-0.377l-0.242 0.139c-0.536 0.238-1.068 0.204-1.644 0.144-0.592-0.265-0.989-0.791-1.308-1.343-0.199-0.663-0.201-1.253 0.083-1.891 0.307-0.549 0.73-0.835 1.267-1.137 0.73-0.178 1.199-0.033 1.845 0.318l0.007-0.163 0.034-0.727 0.011-0.257c0.007-0.121 0.007-0.121 0.012-0.244l0.011-0.227c0.030-0.273 0.072-0.267 0.35-0.278zM65.609 9.42c0.657 0.354 1.013 0.849 1.341 1.505q0.013 0.215 0.012 0.43l0.001 0.23c-0.013 0.189-0.013 0.189-0.107 0.283q-0.345 0.011-0.69 0.009h-0.209l-2.213-0.009 0.171 0.318 0.096 0.179c0.115 0.191 0.115 0.191 0.393 0.351 0.602 0.099 0.916-0.035 1.413-0.377 0.313 0.007 0.489 0.043 0.749 0.218 0.1 0.159 0.1 0.159 0.077 0.339-0.13 0.358-0.424 0.553-0.731 0.763-0.572 0.233-1.162 0.305-1.753 0.106-0.621-0.283-1.062-0.645-1.37-1.26-0.204-0.64-0.218-1.433 0.035-2.060 0.635-0.977 1.65-1.449 2.784-1.025z"></path>
<path fill="#fff" style="fill: var(--color1, #fff)" d="M60.256 10.36c0.297 0.158 0.497 0.377 0.695 0.648 0.129 0.44 0.111 0.81-0.1 1.214-0.223 0.313-0.335 0.453-0.689 0.589-0.461 0.051-0.66 0.049-1.073-0.165-0.305-0.262-0.417-0.437-0.467-0.837-0.010-0.717-0.010-0.717 0.197-1.079 0.443-0.381 0.863-0.47 1.437-0.371z"></path>
<path fill="#0a0a0a" style="fill: var(--color2, #0a0a0a)" d="M56.768 12.433c0.235 0.147 0.235 0.147 0.377 0.377 0 0.356-0.020 0.569-0.247 0.849-0.326 0.137-0.548 0.087-0.885 0-0.232-0.349-0.225-0.531-0.188-0.943 0.209-0.382 0.547-0.331 0.943-0.283z"></path>
<path fill="#fff" style="fill: var(--color1, #fff)" d="M65.347 10.36c0.219 0.172 0.319 0.325 0.471 0.565v0.189h-2.073c0.221-0.555 0.221-0.555 0.471-0.754 0.394-0.131 0.733-0.116 1.131 0z"></path>
<path fill="#fff" style="fill: var(--color1, #fff)" d="M64.121 10.455h0.283l-0.094 0.377 1.508 0.095v0.189h-2.073c0.188-0.472 0.188-0.472 0.377-0.66z"></path>
<path fill="#e76e50" style="fill: var(--color3, #e76e50)" d="M30.182 7.060c0.369 0.109 0.648 0.222 0.943 0.471l-0.094 0.283-0.849-0.471zM31.691 8.38l0.188 0.094-0.094 0.189zM31.973 8.568l0.189 0.189-0.283 0.095zM26.882 7.437c-0.053 0.342-0.181 0.495-0.43 0.731l-0.183 0.175-0.141 0.131-0.189-0.377q0.182-0.165 0.365-0.33l0.205-0.185c0.184-0.145 0.184-0.145 0.372-0.145z"></path>
<path fill="#0a0a0a" style="fill: var(--color2, #0a0a0a)" d="M55.165 17.337l0.283 0.094-0.943 0.943-0.095-0.283zM22.263 28.555l0.189 0.189-0.849 0.849-0.188-0.189z"></path>
<path fill="#e76e50" style="fill: var(--color3, #e76e50)" d="M26.317 12.811c0.308 0.17 0.461 0.267 0.66 0.565l-0.094 0.283c-0.442-0.331-0.442-0.331-0.566-0.471z"></path>
<path fill="#0a0a0a" style="fill: var(--color2, #0a0a0a)" d="M63.65 9.605l0.095 0.283q-0.183 0.195-0.377 0.377h-0.189c0.037-0.272 0.075-0.36 0.289-0.542zM25.563 15.545l0.377 0.189-0.377 0.471q-0.053-0.281-0.095-0.565zM48.095 16.677l0.283 0.094q-0.183 0.195-0.377 0.377h-0.189c0.177-0.365 0.177-0.365 0.283-0.471z"></path>
<path fill="#fff" style="fill: var(--color1, #fff)" d="M13.024 15.733l0.565 0.095c-0.353 0.283-0.353 0.283-0.565 0.283z"></path>
<path fill="#e76e50" style="fill: var(--color3, #e76e50)" d="M27.26 13.471l0.471 0.283-0.094 0.189-0.377-0.189zM35.461 13.093l0.377 0.189-0.095 0.188-0.377-0.188zM25.563 12.151l0.377 0.188v0.377c-0.377-0.46-0.377-0.46-0.377-0.565z"></path>
<path fill="#0a0a0a" style="fill: var(--color2, #0a0a0a)" d="M47.717 22.521l0.283 0.095-0.094 0.283h-0.283zM67.233 18.562l0.471 0.471h-0.283l-0.188-0.189z"></path>
<path fill="#e76e50" style="fill: var(--color3, #e76e50)" d="M26.977 13.377l0.283 0.095 0.095 0.283-0.377-0.094z"></path>
<path fill="#0a0a0a" style="fill: var(--color2, #0a0a0a)" d="M7.839 8.475l0.377 0.189-0.377 0.377z"></path>
<path fill="#e76e50" style="fill: var(--color3, #e76e50)" d="M32.256 9.417l0.283 0.094v0.283h-0.283z"></path>
<path fill="#0a0a0a" style="fill: var(--color2, #0a0a0a)" d="M47.906 22.145l0.189 0.189-0.095 0.188h-0.283zM68.553 21.956h0.283v0.377l-0.283-0.094z"></path>
<path fill="#e76e50" style="fill: var(--color3, #e76e50)" d="M26.599 13.283l0.377 0.094-0.095 0.283-0.283-0.188z"></path>
<path fill="#fff" style="fill: var(--color1, #fff)" d="M58.842 10.737h0.189c-0.035 0.182-0.035 0.182-0.095 0.377l-0.188 0.095zM65.158 10.36c0.365 0.165 0.365 0.165 0.471 0.377l-0.471-0.189z"></path>
<path fill="#0a0a0a" style="fill: var(--color2, #0a0a0a)" d="M23.771 20.447c0.188 0.189 0.188 0.189 0.188 0.472h-0.188l-0.095-0.283zM58.465 9.7l0.189 0.189-0.471 0.094zM56.013 12.528l0.283 0.189-0.283 0.189-0.094-0.283zM59.407 26.293l0.377 0.188-0.283 0.095zM48.66 21.202l0.094 0.283h-0.283zM25.563 15.545h0.188l-0.094 0.283h-0.189z"></path>
<path fill="#e76e50" style="fill: var(--color3, #e76e50)" d="M39.327 7.154l0.283 0.189h-0.377z"></path>
<symbol id="icon-flip-avatar" viewBox="0 0 24 24">
<path d="M15.8491 12.8742C15.7491 13.9742 15.3449 14.9242 14.6366 15.7242C13.9283 16.5242 13.0491 16.9242 11.9991 16.9242C11.8324 16.9242 11.6699 16.9117 11.5116 16.8867C11.3533 16.8617 11.1908 16.8326 11.0241 16.7992C10.9074 16.7659 10.7949 16.7617 10.6866 16.7867C10.5783 16.8117 10.4824 16.8659 10.3991 16.9492C10.2324 17.1159 10.1699 17.3034 10.2116 17.5117C10.2533 17.7201 10.3741 17.8659 10.5741 17.9492C10.8074 18.0326 11.0449 18.0909 11.2866 18.1242C11.5283 18.1576 11.7658 18.1742 11.9991 18.1742C13.4158 18.1742 14.5949 17.6576 15.5366 16.6242C16.4783 15.5909 16.9908 14.3576 17.0741 12.9242L17.5741 13.4242C17.7074 13.5576 17.8574 13.6284 18.0241 13.6367C18.1908 13.6451 18.3408 13.5826 18.4741 13.4492C18.6074 13.3159 18.6741 13.1659 18.6741 12.9992C18.6741 12.8326 18.6074 12.6826 18.4741 12.5492L16.9491 11.0492C16.7991 10.8992 16.6241 10.8242 16.4241 10.8242C16.2241 10.8242 16.0491 10.8992 15.8991 11.0492L14.3991 12.5492C14.2658 12.6826 14.1991 12.8326 14.1991 12.9992C14.1991 13.1659 14.2658 13.3159 14.3991 13.4492C14.5324 13.5826 14.6783 13.6492 14.8366 13.6492C14.9949 13.6492 15.1408 13.5826 15.2741 13.4492L15.8491 12.8742ZM6.97411 13.2492L6.47411 12.7492C6.34078 12.6159 6.19078 12.5492 6.02411 12.5492C5.85744 12.5492 5.70744 12.6159 5.57411 12.7492C5.44078 12.8826 5.37411 13.0284 5.37411 13.1867C5.37411 13.3451 5.44078 13.4909 5.57411 13.6242L7.07411 15.1242C7.22411 15.2742 7.40328 15.3492 7.61161 15.3492C7.81994 15.3492 7.99911 15.2742 8.14911 15.1242L9.64911 13.6242C9.78244 13.4909 9.84911 13.3409 9.84911 13.1742C9.84911 13.0076 9.78244 12.8576 9.64911 12.7242C9.51578 12.5909 9.36994 12.5242 9.21161 12.5242C9.05328 12.5242 8.90744 12.5909 8.77411 12.7242L8.19911 13.2992C8.29911 12.1992 8.70328 11.2492 9.41161 10.4492C10.1199 9.64925 10.9991 9.24925 12.0491 9.24925C12.2158 9.24925 12.3783 9.26175 12.5366 9.28675C12.6949 9.31175 12.8574 9.34092 13.0241 9.37425C13.1408 9.40758 13.2533 9.41175 13.3616 9.38675C13.4699 9.36175 13.5658 9.30758 13.6491 9.22425C13.8158 9.05758 13.8783 8.87008 13.8366 8.66175C13.7949 8.45342 13.6741 8.30758 13.4741 8.22425C13.2408 8.14092 13.0033 8.08258 12.7616 8.04925C12.5199 8.01592 12.2824 7.99925 12.0491 7.99925C10.6324 7.99925 9.45328 8.51592 8.51161 9.54925C7.56994 10.5826 7.05744 11.8159 6.97411 13.2492ZM3.55286 21.1487C3.09286 21.1487 2.69403 20.9798 2.35636 20.642C2.01853 20.3043 1.84961 19.9055 1.84961 19.4455V6.728C1.84961 6.283 2.01853 5.88692 2.35636 5.53975C2.69403 5.19242 3.09286 5.01875 3.55286 5.01875H7.09636L8.47736 3.40475C8.63069 3.20942 8.81728 3.06708 9.03711 2.97775C9.25711 2.88842 9.49369 2.84375 9.74686 2.84375H14.2574C14.506 2.84375 14.7404 2.88842 14.9606 2.97775C15.1808 3.06708 15.3675 3.20942 15.5209 3.40475L16.9079 5.01875H20.4454C20.8904 5.01875 21.2864 5.19242 21.6336 5.53975C21.9809 5.88692 22.1546 6.283 22.1546 6.728V19.4455C22.1546 19.9055 21.9809 20.3043 21.6336 20.642C21.2864 20.9798 20.8904 21.1487 20.4454 21.1487H3.55286ZM3.55286 19.4455H20.4454V6.728H16.1361L14.2634 4.553H9.74686L7.85011 6.728H3.55286V19.4455Z " fill="#EE9984"/>
</symbol>
<symbol id="icon-eye-show" viewBox="0 0 24 24">
<path d="M10.8915 11.8875C12.0728 11.8875 13.076 11.474 13.901 10.647C14.726 9.82 15.1385 8.81583 15.1385 7.6345C15.1385 6.45317 14.725 5.45 13.898 4.625C13.071 3.8 12.0668 3.3875 10.8855 3.3875C9.70417 3.3875 8.701 3.801 7.876 4.628C7.051 5.455 6.6385 6.45917 6.6385 7.6405C6.6385 8.82183 7.052 9.825 7.879 10.65C8.706 11.475 9.71017 11.8875 10.8915 11.8875ZM10.884 10.3418C10.1315 10.3418 9.49342 10.0784 8.96975 9.55175C8.44608 9.02508 8.18425 8.3855 8.18425 7.633C8.18425 6.8805 8.44758 6.24242 8.97425 5.71875C9.50092 5.19508 10.1405 4.93325 10.893 4.93325C11.6455 4.93325 12.2836 5.19658 12.8073 5.72325C13.3309 6.24992 13.5927 6.8895 13.5927 7.642C13.5927 8.3945 13.3294 9.03258 12.8027 9.55625C12.2761 10.0799 11.6365 10.3418 10.884 10.3418ZM10.8885 15.275C8.6185 15.275 6.55383 14.6393 4.6945 13.368C2.83517 12.0967 1.34492 10.4684 0.22375 8.48325C0.149083 8.34925 0.0931667 8.21117 0.056 8.069C0.0186667 7.92683 0 7.7825 0 7.636C0 7.4895 0.0186667 7.34567 0.056 7.2045C0.0931667 7.06317 0.149083 6.92558 0.22375 6.79175C1.34492 4.80658 2.83517 3.17833 4.6945 1.907C6.55383 0.635667 8.6185 0 10.8885 0C13.1585 0 15.2232 0.635667 17.0825 1.907C18.9418 3.17833 20.4321 4.80658 21.5533 6.79175C21.6279 6.92575 21.6838 7.06383 21.721 7.206C21.7583 7.34817 21.777 7.4925 21.777 7.639C21.777 7.7855 21.7583 7.92933 21.721 8.0705C21.6838 8.21183 21.6279 8.34942 21.5533 8.48325C20.4321 10.4684 18.9418 12.0967 17.0825 13.368C15.2232 14.6393 13.1585 15.275 10.8885 15.275ZM10.8848 13.6375C12.9039 13.6375 14.7573 13.0917 16.445 12C18.1327 10.9083 19.4182 9.45417 20.3015 7.6375C19.4182 5.82083 18.1339 4.36667 16.4487 3.275C14.7634 2.18333 12.9113 1.6375 10.8923 1.6375C8.87308 1.6375 7.01967 2.18333 5.332 3.275C3.64433 4.36667 2.3505 5.82083 1.4505 7.6375C2.3505 9.45417 3.64308 10.9083 5.32825 12C7.01358 13.0917 8.86575 13.6375 10.8848 13.6375Z" fill="#4D4D4D"/>
</symbol>
<symbol id="icon-eye-hide" viewBox="0 0 24 24">
  <path fill="none" stroke="currentColor" stroke-width="2" stroke-linecap="round" stroke-linejoin="round" d="M17.94 17.94A10.07 10.07 0 0 1 12 20c-7 0-10-7-10-7a13.15 13.15 0 0 1 2.8-3.8 M9.88 9.88c-.14.36-.21.75-.21 1.12a3 3 0 0 0 3 3c.37 0 .76-.07 1.12-.21 M10.73 5.08A10.43 10.43 0 0 1 12 5c7 0 10 7 10 7a13.16 13.16 0 0 1-1.67 2.68 M6.61 6.61L2 2m20 20l-4.61-4.61" />
</symbol>
</defs>
</svg>
